G04*
G04 #@! TF.GenerationSoftware,Altium Limited,Altium Designer,24.9.1 (31)*
G04*
G04 Layer_Color=8388736*
%FSLAX44Y44*%
%MOMM*%
G71*
G04*
G04 #@! TF.SameCoordinates,58564934-83CB-4443-A129-65336E2EC8F8*
G04*
G04*
G04 #@! TF.FilePolarity,Negative*
G04*
G01*
G75*
%ADD18R,0.6000X1.2500*%
%ADD30R,0.4500X0.6750*%
%ADD34R,2.0500X1.1000*%
%ADD35R,0.7811X0.7121*%
%ADD37R,0.6500X0.3500*%
%ADD52R,0.8000X1.2000*%
%ADD53R,1.5000X1.6000*%
%ADD58R,4.4000X2.2000*%
%ADD59R,2.1000X2.0000*%
%ADD62R,1.6000X1.0500*%
%ADD64R,1.3000X1.5000*%
%ADD72R,2.1600X2.2600*%
%ADD73R,0.5000X0.7000*%
%ADD75R,1.4000X1.0000*%
%ADD76R,0.6725X0.6682*%
%ADD77R,0.5000X0.4750*%
%ADD80R,0.4725X0.4682*%
%ADD84R,0.5200X0.5200*%
%ADD85R,2.2600X2.1600*%
%ADD93R,1.0500X1.6000*%
%ADD94R,0.5200X0.5200*%
%ADD95R,0.7121X0.7811*%
G04:AMPARAMS|DCode=96|XSize=0.7032mm|YSize=0.7032mm|CornerRadius=0.1641mm|HoleSize=0mm|Usage=FLASHONLY|Rotation=90.000|XOffset=0mm|YOffset=0mm|HoleType=Round|Shape=RoundedRectangle|*
%AMROUNDEDRECTD96*
21,1,0.7032,0.3750,0,0,90.0*
21,1,0.3750,0.7032,0,0,90.0*
1,1,0.3282,0.1875,0.1875*
1,1,0.3282,0.1875,-0.1875*
1,1,0.3282,-0.1875,-0.1875*
1,1,0.3282,-0.1875,0.1875*
%
%ADD96ROUNDEDRECTD96*%
%ADD97R,2.1032X1.5782*%
%ADD98R,1.5832X0.6532*%
%ADD99R,2.3032X1.6032*%
G04:AMPARAMS|DCode=100|XSize=1.7032mm|YSize=1.7032mm|CornerRadius=0.4016mm|HoleSize=0mm|Usage=FLASHONLY|Rotation=0.000|XOffset=0mm|YOffset=0mm|HoleType=Round|Shape=RoundedRectangle|*
%AMROUNDEDRECTD100*
21,1,1.7032,0.9000,0,0,0.0*
21,1,0.9000,1.7032,0,0,0.0*
1,1,0.8032,0.4500,-0.4500*
1,1,0.8032,-0.4500,-0.4500*
1,1,0.8032,-0.4500,0.4500*
1,1,0.8032,0.4500,0.4500*
%
%ADD100ROUNDEDRECTD100*%
%ADD101O,1.3032X2.0032*%
%ADD102O,1.2532X1.6532*%
%ADD103C,1.7780*%
%ADD104R,1.7780X1.7780*%
%ADD105R,0.7532X0.7532*%
%ADD106R,2.5532X1.5532*%
G04:AMPARAMS|DCode=107|XSize=0.7532mm|YSize=0.7032mm|CornerRadius=0.1641mm|HoleSize=0mm|Usage=FLASHONLY|Rotation=270.000|XOffset=0mm|YOffset=0mm|HoleType=Round|Shape=RoundedRectangle|*
%AMROUNDEDRECTD107*
21,1,0.7532,0.3750,0,0,270.0*
21,1,0.4250,0.7032,0,0,270.0*
1,1,0.3282,-0.1875,-0.2125*
1,1,0.3282,-0.1875,0.2125*
1,1,0.3282,0.1875,0.2125*
1,1,0.3282,0.1875,-0.2125*
%
%ADD107ROUNDEDRECTD107*%
%ADD108R,0.9232X0.9632*%
%ADD109R,0.7232X0.7632*%
G04:AMPARAMS|DCode=110|XSize=0.6032mm|YSize=1.1032mm|CornerRadius=0.1516mm|HoleSize=0mm|Usage=FLASHONLY|Rotation=270.000|XOffset=0mm|YOffset=0mm|HoleType=Round|Shape=RoundedRectangle|*
%AMROUNDEDRECTD110*
21,1,0.6032,0.8000,0,0,270.0*
21,1,0.3000,1.1032,0,0,270.0*
1,1,0.3032,-0.4000,-0.1500*
1,1,0.3032,-0.4000,0.1500*
1,1,0.3032,0.4000,0.1500*
1,1,0.3032,0.4000,-0.1500*
%
%ADD110ROUNDEDRECTD110*%
%ADD111R,1.8032X3.2032*%
%ADD112R,6.0032X6.4032*%
G04:AMPARAMS|DCode=113|XSize=1.4332mm|YSize=0.8032mm|CornerRadius=0.1766mm|HoleSize=0mm|Usage=FLASHONLY|Rotation=0.000|XOffset=0mm|YOffset=0mm|HoleType=Round|Shape=RoundedRectangle|*
%AMROUNDEDRECTD113*
21,1,1.4332,0.4500,0,0,0.0*
21,1,1.0800,0.8032,0,0,0.0*
1,1,0.3532,0.5400,-0.2250*
1,1,0.3532,-0.5400,-0.2250*
1,1,0.3532,-0.5400,0.2250*
1,1,0.3532,0.5400,0.2250*
%
%ADD113ROUNDEDRECTD113*%
%ADD114R,0.8532X0.8532*%
%ADD115R,0.6532X0.6532*%
%ADD116R,1.0032X1.2032*%
%ADD117R,0.6532X0.7032*%
G04:AMPARAMS|DCode=118|XSize=2.1732mm|YSize=0.8032mm|CornerRadius=0.1766mm|HoleSize=0mm|Usage=FLASHONLY|Rotation=180.000|XOffset=0mm|YOffset=0mm|HoleType=Round|Shape=RoundedRectangle|*
%AMROUNDEDRECTD118*
21,1,2.1732,0.4500,0,0,180.0*
21,1,1.8200,0.8032,0,0,180.0*
1,1,0.3532,-0.9100,0.2250*
1,1,0.3532,0.9100,0.2250*
1,1,0.3532,0.9100,-0.2250*
1,1,0.3532,-0.9100,-0.2250*
%
%ADD118ROUNDEDRECTD118*%
%ADD119R,2.6162X3.5052*%
G04:AMPARAMS|DCode=120|XSize=2.2532mm|YSize=0.7932mm|CornerRadius=0.1754mm|HoleSize=0mm|Usage=FLASHONLY|Rotation=180.000|XOffset=0mm|YOffset=0mm|HoleType=Round|Shape=RoundedRectangle|*
%AMROUNDEDRECTD120*
21,1,2.2532,0.4425,0,0,180.0*
21,1,1.9025,0.7932,0,0,180.0*
1,1,0.3507,-0.9513,0.2213*
1,1,0.3507,0.9513,0.2213*
1,1,0.3507,0.9513,-0.2213*
1,1,0.3507,-0.9513,-0.2213*
%
%ADD120ROUNDEDRECTD120*%
%ADD121O,2.2032X0.8032*%
%ADD122O,0.8032X2.2032*%
%ADD123R,2.3032X2.3032*%
%ADD124R,1.3032X1.1032*%
%ADD125R,1.1032X1.3032*%
%ADD126R,1.2442X4.2422*%
%ADD127R,10.9472X8.5092*%
%ADD128R,1.3332X1.9732*%
%ADD129R,2.0532X0.8532*%
%ADD130R,1.6524X3.4524*%
%ADD131R,1.4032X0.8032*%
%ADD132R,2.4032X3.2532*%
%ADD133R,1.5532X2.0532*%
G04:AMPARAMS|DCode=134|XSize=3.3232mm|YSize=2.3832mm|CornerRadius=0.3523mm|HoleSize=0mm|Usage=FLASHONLY|Rotation=90.000|XOffset=0mm|YOffset=0mm|HoleType=Round|Shape=RoundedRectangle|*
%AMROUNDEDRECTD134*
21,1,3.3232,1.6786,0,0,90.0*
21,1,2.6186,2.3832,0,0,90.0*
1,1,0.7046,0.8393,1.3093*
1,1,0.7046,0.8393,-1.3093*
1,1,0.7046,-0.8393,-1.3093*
1,1,0.7046,-0.8393,1.3093*
%
%ADD134ROUNDEDRECTD134*%
%ADD135R,1.0032X0.8032*%
%ADD136R,0.8532X0.9032*%
%ADD137R,1.5032X1.1532*%
%ADD138R,1.5032X3.4532*%
G04:AMPARAMS|DCode=139|XSize=0.7532mm|YSize=0.7032mm|CornerRadius=0.1641mm|HoleSize=0mm|Usage=FLASHONLY|Rotation=180.000|XOffset=0mm|YOffset=0mm|HoleType=Round|Shape=RoundedRectangle|*
%AMROUNDEDRECTD139*
21,1,0.7532,0.3750,0,0,180.0*
21,1,0.4250,0.7032,0,0,180.0*
1,1,0.3282,-0.2125,0.1875*
1,1,0.3282,0.2125,0.1875*
1,1,0.3282,0.2125,-0.1875*
1,1,0.3282,-0.2125,-0.1875*
%
%ADD139ROUNDEDRECTD139*%
%ADD140R,3.5032X2.6032*%
%ADD141R,0.6532X0.6532*%
%ADD142R,0.7532X0.8032*%
%ADD143C,0.9144*%
%ADD144O,1.8032X0.8032*%
%ADD145R,2.2032X1.8032*%
G04:AMPARAMS|DCode=146|XSize=0.7032mm|YSize=0.7032mm|CornerRadius=0.1641mm|HoleSize=0mm|Usage=FLASHONLY|Rotation=180.000|XOffset=0mm|YOffset=0mm|HoleType=Round|Shape=RoundedRectangle|*
%AMROUNDEDRECTD146*
21,1,0.7032,0.3750,0,0,180.0*
21,1,0.3750,0.7032,0,0,180.0*
1,1,0.3282,-0.1875,0.1875*
1,1,0.3282,0.1875,0.1875*
1,1,0.3282,0.1875,-0.1875*
1,1,0.3282,-0.1875,-0.1875*
%
%ADD146ROUNDEDRECTD146*%
%ADD147R,0.8032X0.7532*%
%ADD148R,0.8532X0.8532*%
%ADD149R,0.7632X0.7232*%
%ADD150R,2.6032X3.5032*%
%ADD151R,0.7532X0.7532*%
%ADD152R,0.7032X0.6532*%
%ADD153R,2.0532X1.5532*%
%ADD154C,2.4532*%
%ADD155C,2.3032*%
%ADD156O,2.3032X1.6032*%
%ADD157C,1.8032*%
%ADD158R,1.8032X1.8032*%
%ADD159C,2.0032*%
%ADD160R,2.0532X2.0532*%
%ADD161C,2.0532*%
G04:AMPARAMS|DCode=162|XSize=1.8032mm|YSize=1.8032mm|CornerRadius=0.5016mm|HoleSize=0mm|Usage=FLASHONLY|Rotation=90.000|XOffset=0mm|YOffset=0mm|HoleType=Round|Shape=RoundedRectangle|*
%AMROUNDEDRECTD162*
21,1,1.8032,0.8000,0,0,90.0*
21,1,0.8000,1.8032,0,0,90.0*
1,1,1.0032,0.4000,0.4000*
1,1,1.0032,0.4000,-0.4000*
1,1,1.0032,-0.4000,-0.4000*
1,1,1.0032,-0.4000,0.4000*
%
%ADD162ROUNDEDRECTD162*%
%ADD163R,2.4500X2.4500*%
%ADD164C,2.4500*%
%ADD165C,1.5500*%
%ADD166R,1.5500X1.5500*%
%ADD167R,1.5732X1.5732*%
%ADD168C,1.5732*%
G04:AMPARAMS|DCode=169|XSize=1.1032mm|YSize=1.1032mm|CornerRadius=0.3266mm|HoleSize=0mm|Usage=FLASHONLY|Rotation=270.000|XOffset=0mm|YOffset=0mm|HoleType=Round|Shape=RoundedRectangle|*
%AMROUNDEDRECTD169*
21,1,1.1032,0.4500,0,0,270.0*
21,1,0.4500,1.1032,0,0,270.0*
1,1,0.6532,-0.2250,-0.2250*
1,1,0.6532,-0.2250,0.2250*
1,1,0.6532,0.2250,0.2250*
1,1,0.6532,0.2250,-0.2250*
%
%ADD169ROUNDEDRECTD169*%
%ADD170C,1.1032*%
%ADD171R,1.8032X1.8032*%
%ADD172R,2.4532X2.4532*%
%ADD173C,1.7332*%
%ADD174R,1.7332X1.7332*%
%ADD175C,0.9532*%
%ADD176C,1.4032*%
%ADD177C,1.2032*%
%ADD178C,4.5212*%
%ADD179C,1.2192*%
%ADD180C,0.8128*%
%ADD181C,1.4732*%
%ADD182C,1.0032*%
G36*
X626192Y490678D02*
X626662Y490638D01*
X627132Y490578D01*
X627592Y490488D01*
X628052Y490378D01*
X628502Y490248D01*
X628952Y490088D01*
X629382Y489908D01*
X629812Y489708D01*
X630222Y489478D01*
X630622Y489238D01*
X631012Y488968D01*
X631382Y488678D01*
X631742Y488378D01*
X632082Y488048D01*
X632412Y487708D01*
X632712Y487348D01*
X633002Y486978D01*
X633272Y486588D01*
X633512Y486188D01*
X633742Y485778D01*
X633942Y485348D01*
X634122Y484918D01*
X634282Y484468D01*
X634412Y484018D01*
X634522Y483558D01*
X634612Y483098D01*
X634672Y482628D01*
X634712Y482158D01*
X634722Y481688D01*
X634712Y481218D01*
X634672Y480748D01*
X634612Y480278D01*
X634522Y479818D01*
X634412Y479358D01*
X634282Y478908D01*
X634122Y478458D01*
X633942Y478028D01*
X633742Y477598D01*
X633512Y477188D01*
X633272Y476788D01*
X633002Y476398D01*
X632712Y476028D01*
X632412Y475668D01*
X632082Y475328D01*
X631742Y474998D01*
X631382Y474698D01*
X631012Y474408D01*
X630622Y474138D01*
X630222Y473898D01*
X629812Y473668D01*
X629382Y473468D01*
X628952Y473288D01*
X628502Y473128D01*
X628052Y472998D01*
X627592Y472888D01*
X627132Y472798D01*
X626662Y472738D01*
X626192Y472698D01*
X625722Y472688D01*
X600722D01*
Y490688D01*
X625722D01*
X626192Y490678D01*
D02*
G37*
G36*
Y516078D02*
X626662Y516038D01*
X627132Y515978D01*
X627592Y515888D01*
X628052Y515778D01*
X628502Y515648D01*
X628952Y515488D01*
X629382Y515308D01*
X629812Y515108D01*
X630222Y514878D01*
X630622Y514638D01*
X631012Y514368D01*
X631382Y514078D01*
X631742Y513778D01*
X632082Y513448D01*
X632412Y513108D01*
X632712Y512748D01*
X633002Y512378D01*
X633272Y511988D01*
X633512Y511588D01*
X633742Y511178D01*
X633942Y510748D01*
X634122Y510318D01*
X634282Y509868D01*
X634412Y509418D01*
X634522Y508958D01*
X634612Y508498D01*
X634672Y508028D01*
X634712Y507558D01*
X634722Y507088D01*
X634712Y506618D01*
X634672Y506148D01*
X634612Y505678D01*
X634522Y505218D01*
X634412Y504758D01*
X634282Y504308D01*
X634122Y503858D01*
X633942Y503428D01*
X633742Y502998D01*
X633512Y502588D01*
X633272Y502188D01*
X633002Y501798D01*
X632712Y501428D01*
X632412Y501068D01*
X632082Y500728D01*
X631742Y500398D01*
X631382Y500098D01*
X631012Y499808D01*
X630622Y499538D01*
X630222Y499298D01*
X629812Y499068D01*
X629382Y498868D01*
X628952Y498688D01*
X628502Y498528D01*
X628052Y498398D01*
X627592Y498288D01*
X627132Y498198D01*
X626662Y498138D01*
X626192Y498098D01*
X625722Y498088D01*
X600722D01*
Y516088D01*
X625722D01*
X626192Y516078D01*
D02*
G37*
G36*
X632032Y541468D02*
X632192Y541448D01*
X632342Y541418D01*
X632502Y541388D01*
X632652Y541338D01*
X632802Y541288D01*
X632942Y541228D01*
X633082Y541158D01*
X633222Y541088D01*
X633352Y541008D01*
X633482Y540918D01*
X633612Y540818D01*
X633732Y540718D01*
X633842Y540608D01*
X633952Y540498D01*
X634052Y540378D01*
X634152Y540248D01*
X634242Y540118D01*
X634322Y539988D01*
X634392Y539848D01*
X634462Y539708D01*
X634522Y539568D01*
X634572Y539418D01*
X634622Y539268D01*
X634652Y539108D01*
X634682Y538958D01*
X634702Y538798D01*
X634722Y538648D01*
Y538488D01*
Y526488D01*
Y526328D01*
X634702Y526178D01*
X634682Y526018D01*
X634652Y525868D01*
X634622Y525708D01*
X634572Y525558D01*
X634522Y525408D01*
X634462Y525268D01*
X634392Y525128D01*
X634322Y524988D01*
X634242Y524858D01*
X634152Y524728D01*
X634052Y524598D01*
X633952Y524478D01*
X633842Y524368D01*
X633732Y524258D01*
X633612Y524158D01*
X633482Y524058D01*
X633352Y523968D01*
X633222Y523888D01*
X633082Y523818D01*
X632942Y523748D01*
X632802Y523688D01*
X632652Y523638D01*
X632502Y523588D01*
X632342Y523558D01*
X632192Y523528D01*
X632032Y523508D01*
X631882Y523488D01*
X600722D01*
Y541488D01*
X631882D01*
X632032Y541468D01*
D02*
G37*
G36*
X626192Y566878D02*
X626662Y566838D01*
X627132Y566778D01*
X627592Y566688D01*
X628052Y566578D01*
X628502Y566448D01*
X628952Y566288D01*
X629382Y566108D01*
X629812Y565908D01*
X630222Y565678D01*
X630622Y565438D01*
X631012Y565168D01*
X631382Y564878D01*
X631742Y564578D01*
X632082Y564248D01*
X632412Y563908D01*
X632712Y563548D01*
X633002Y563178D01*
X633272Y562788D01*
X633512Y562388D01*
X633742Y561978D01*
X633942Y561548D01*
X634122Y561118D01*
X634282Y560668D01*
X634412Y560218D01*
X634522Y559758D01*
X634612Y559298D01*
X634672Y558828D01*
X634712Y558358D01*
X634722Y557888D01*
X634712Y557418D01*
X634672Y556948D01*
X634612Y556478D01*
X634522Y556018D01*
X634412Y555558D01*
X634282Y555108D01*
X634122Y554658D01*
X633942Y554228D01*
X633742Y553798D01*
X633512Y553388D01*
X633272Y552988D01*
X633002Y552598D01*
X632712Y552228D01*
X632412Y551868D01*
X632082Y551528D01*
X631742Y551198D01*
X631382Y550898D01*
X631012Y550608D01*
X630622Y550338D01*
X630222Y550098D01*
X629812Y549868D01*
X629382Y549668D01*
X628952Y549488D01*
X628502Y549328D01*
X628052Y549198D01*
X627592Y549088D01*
X627132Y548998D01*
X626662Y548938D01*
X626192Y548898D01*
X625722Y548888D01*
X600722D01*
Y566888D01*
X625722D01*
X626192Y566878D01*
D02*
G37*
G36*
Y592278D02*
X626662Y592238D01*
X627132Y592178D01*
X627592Y592088D01*
X628052Y591978D01*
X628502Y591848D01*
X628952Y591688D01*
X629382Y591508D01*
X629812Y591308D01*
X630222Y591078D01*
X630622Y590838D01*
X631012Y590568D01*
X631382Y590278D01*
X631742Y589978D01*
X632082Y589648D01*
X632412Y589308D01*
X632712Y588948D01*
X633002Y588578D01*
X633272Y588188D01*
X633512Y587788D01*
X633742Y587378D01*
X633942Y586948D01*
X634122Y586518D01*
X634282Y586068D01*
X634412Y585618D01*
X634522Y585158D01*
X634612Y584698D01*
X634672Y584228D01*
X634712Y583758D01*
X634722Y583288D01*
X634712Y582818D01*
X634672Y582348D01*
X634612Y581878D01*
X634522Y581418D01*
X634412Y580958D01*
X634282Y580508D01*
X634122Y580058D01*
X633942Y579628D01*
X633742Y579198D01*
X633512Y578788D01*
X633272Y578388D01*
X633002Y577998D01*
X632712Y577628D01*
X632412Y577268D01*
X632082Y576928D01*
X631742Y576598D01*
X631382Y576298D01*
X631012Y576008D01*
X630622Y575738D01*
X630222Y575498D01*
X629812Y575268D01*
X629382Y575068D01*
X628952Y574888D01*
X628502Y574728D01*
X628052Y574598D01*
X627592Y574488D01*
X627132Y574398D01*
X626662Y574338D01*
X626192Y574298D01*
X625722Y574288D01*
X600722D01*
Y592288D01*
X625722D01*
X626192Y592278D01*
D02*
G37*
G36*
X828522Y472688D02*
X803522D01*
X803052Y472698D01*
X802582Y472738D01*
X802112Y472798D01*
X801652Y472888D01*
X801192Y472998D01*
X800742Y473128D01*
X800292Y473288D01*
X799862Y473468D01*
X799432Y473668D01*
X799022Y473898D01*
X798622Y474138D01*
X798232Y474408D01*
X797862Y474698D01*
X797502Y474998D01*
X797162Y475328D01*
X796832Y475668D01*
X796532Y476028D01*
X796242Y476398D01*
X795972Y476788D01*
X795732Y477188D01*
X795502Y477598D01*
X795302Y478028D01*
X795122Y478458D01*
X794962Y478908D01*
X794832Y479358D01*
X794722Y479818D01*
X794632Y480278D01*
X794572Y480748D01*
X794532Y481218D01*
X794522Y481688D01*
X794532Y482158D01*
X794572Y482628D01*
X794632Y483098D01*
X794722Y483558D01*
X794832Y484018D01*
X794962Y484468D01*
X795122Y484918D01*
X795302Y485348D01*
X795502Y485778D01*
X795732Y486188D01*
X795972Y486588D01*
X796242Y486978D01*
X796532Y487348D01*
X796832Y487708D01*
X797162Y488048D01*
X797502Y488378D01*
X797862Y488678D01*
X798232Y488968D01*
X798622Y489238D01*
X799022Y489478D01*
X799432Y489708D01*
X799862Y489908D01*
X800292Y490088D01*
X800742Y490248D01*
X801192Y490378D01*
X801652Y490488D01*
X802112Y490578D01*
X802582Y490638D01*
X803052Y490678D01*
X803522Y490688D01*
X828522D01*
Y472688D01*
D02*
G37*
G36*
Y498088D02*
X803522D01*
X803052Y498098D01*
X802582Y498138D01*
X802112Y498198D01*
X801652Y498288D01*
X801192Y498398D01*
X800742Y498528D01*
X800292Y498688D01*
X799862Y498868D01*
X799432Y499068D01*
X799022Y499298D01*
X798622Y499538D01*
X798232Y499808D01*
X797862Y500098D01*
X797502Y500398D01*
X797162Y500728D01*
X796832Y501068D01*
X796532Y501428D01*
X796242Y501798D01*
X795972Y502188D01*
X795732Y502588D01*
X795502Y502998D01*
X795302Y503428D01*
X795122Y503858D01*
X794962Y504308D01*
X794832Y504758D01*
X794722Y505218D01*
X794632Y505678D01*
X794572Y506148D01*
X794532Y506618D01*
X794522Y507088D01*
X794532Y507558D01*
X794572Y508028D01*
X794632Y508498D01*
X794722Y508958D01*
X794832Y509418D01*
X794962Y509868D01*
X795122Y510318D01*
X795302Y510748D01*
X795502Y511178D01*
X795732Y511588D01*
X795972Y511988D01*
X796242Y512378D01*
X796532Y512748D01*
X796832Y513108D01*
X797162Y513448D01*
X797502Y513778D01*
X797862Y514078D01*
X798232Y514368D01*
X798622Y514638D01*
X799022Y514878D01*
X799432Y515108D01*
X799862Y515308D01*
X800292Y515488D01*
X800742Y515648D01*
X801192Y515778D01*
X801652Y515888D01*
X802112Y515978D01*
X802582Y516038D01*
X803052Y516078D01*
X803522Y516088D01*
X828522D01*
Y498088D01*
D02*
G37*
G36*
Y523488D02*
X797362D01*
X797212Y523508D01*
X797052Y523528D01*
X796902Y523558D01*
X796742Y523588D01*
X796592Y523638D01*
X796442Y523688D01*
X796302Y523748D01*
X796162Y523818D01*
X796022Y523888D01*
X795892Y523968D01*
X795762Y524058D01*
X795632Y524158D01*
X795512Y524258D01*
X795402Y524368D01*
X795292Y524478D01*
X795192Y524598D01*
X795092Y524728D01*
X795002Y524858D01*
X794922Y524988D01*
X794852Y525128D01*
X794782Y525268D01*
X794722Y525408D01*
X794672Y525558D01*
X794622Y525708D01*
X794592Y525868D01*
X794562Y526018D01*
X794542Y526178D01*
X794522Y526328D01*
Y526488D01*
Y538488D01*
Y538648D01*
X794542Y538798D01*
X794562Y538958D01*
X794592Y539108D01*
X794622Y539268D01*
X794672Y539418D01*
X794722Y539568D01*
X794782Y539708D01*
X794852Y539848D01*
X794922Y539988D01*
X795002Y540118D01*
X795092Y540248D01*
X795192Y540378D01*
X795292Y540498D01*
X795402Y540608D01*
X795512Y540718D01*
X795632Y540818D01*
X795762Y540918D01*
X795892Y541008D01*
X796022Y541088D01*
X796162Y541158D01*
X796302Y541228D01*
X796442Y541288D01*
X796592Y541338D01*
X796742Y541388D01*
X796902Y541418D01*
X797052Y541448D01*
X797212Y541468D01*
X797362Y541488D01*
X828522D01*
Y523488D01*
D02*
G37*
G36*
Y548888D02*
X803522D01*
X803052Y548898D01*
X802582Y548938D01*
X802112Y548998D01*
X801652Y549088D01*
X801192Y549198D01*
X800742Y549328D01*
X800292Y549488D01*
X799862Y549668D01*
X799432Y549868D01*
X799022Y550098D01*
X798622Y550338D01*
X798232Y550608D01*
X797862Y550898D01*
X797502Y551198D01*
X797162Y551528D01*
X796832Y551868D01*
X796532Y552228D01*
X796242Y552598D01*
X795972Y552988D01*
X795732Y553388D01*
X795502Y553798D01*
X795302Y554228D01*
X795122Y554658D01*
X794962Y555108D01*
X794832Y555558D01*
X794722Y556018D01*
X794632Y556478D01*
X794572Y556948D01*
X794532Y557418D01*
X794522Y557888D01*
X794532Y558358D01*
X794572Y558828D01*
X794632Y559298D01*
X794722Y559758D01*
X794832Y560218D01*
X794962Y560668D01*
X795122Y561118D01*
X795302Y561548D01*
X795502Y561978D01*
X795732Y562388D01*
X795972Y562788D01*
X796242Y563178D01*
X796532Y563548D01*
X796832Y563908D01*
X797162Y564248D01*
X797502Y564578D01*
X797862Y564878D01*
X798232Y565168D01*
X798622Y565438D01*
X799022Y565678D01*
X799432Y565908D01*
X799862Y566108D01*
X800292Y566288D01*
X800742Y566448D01*
X801192Y566578D01*
X801652Y566688D01*
X802112Y566778D01*
X802582Y566838D01*
X803052Y566878D01*
X803522Y566888D01*
X828522D01*
Y548888D01*
D02*
G37*
G36*
Y574288D02*
X803522D01*
X803052Y574298D01*
X802582Y574338D01*
X802112Y574398D01*
X801652Y574488D01*
X801192Y574598D01*
X800742Y574728D01*
X800292Y574888D01*
X799862Y575068D01*
X799432Y575268D01*
X799022Y575498D01*
X798622Y575738D01*
X798232Y576008D01*
X797862Y576298D01*
X797502Y576598D01*
X797162Y576928D01*
X796832Y577268D01*
X796532Y577628D01*
X796242Y577998D01*
X795972Y578388D01*
X795732Y578788D01*
X795502Y579198D01*
X795302Y579628D01*
X795122Y580058D01*
X794962Y580508D01*
X794832Y580958D01*
X794722Y581418D01*
X794632Y581878D01*
X794572Y582348D01*
X794532Y582818D01*
X794522Y583288D01*
X794532Y583758D01*
X794572Y584228D01*
X794632Y584698D01*
X794722Y585158D01*
X794832Y585618D01*
X794962Y586068D01*
X795122Y586518D01*
X795302Y586948D01*
X795502Y587378D01*
X795732Y587788D01*
X795972Y588188D01*
X796242Y588578D01*
X796532Y588948D01*
X796832Y589308D01*
X797162Y589648D01*
X797502Y589978D01*
X797862Y590278D01*
X798232Y590568D01*
X798622Y590838D01*
X799022Y591078D01*
X799432Y591308D01*
X799862Y591508D01*
X800292Y591688D01*
X800742Y591848D01*
X801192Y591978D01*
X801652Y592088D01*
X802112Y592178D01*
X802582Y592238D01*
X803052Y592278D01*
X803522Y592288D01*
X828522D01*
Y574288D01*
D02*
G37*
G36*
X626192Y617678D02*
X626662Y617638D01*
X627132Y617578D01*
X627592Y617488D01*
X628052Y617378D01*
X628502Y617248D01*
X628952Y617088D01*
X629382Y616908D01*
X629812Y616708D01*
X630222Y616478D01*
X630622Y616238D01*
X631012Y615968D01*
X631382Y615678D01*
X631742Y615378D01*
X632082Y615048D01*
X632412Y614708D01*
X632712Y614348D01*
X633002Y613978D01*
X633272Y613588D01*
X633512Y613188D01*
X633742Y612778D01*
X633942Y612348D01*
X634122Y611918D01*
X634282Y611468D01*
X634412Y611018D01*
X634522Y610558D01*
X634612Y610098D01*
X634672Y609628D01*
X634712Y609158D01*
X634722Y608688D01*
X634712Y608218D01*
X634672Y607748D01*
X634612Y607278D01*
X634522Y606818D01*
X634412Y606358D01*
X634282Y605908D01*
X634122Y605458D01*
X633942Y605028D01*
X633742Y604598D01*
X633512Y604188D01*
X633272Y603788D01*
X633002Y603398D01*
X632712Y603028D01*
X632412Y602668D01*
X632082Y602328D01*
X631742Y601998D01*
X631382Y601698D01*
X631012Y601408D01*
X630622Y601138D01*
X630222Y600898D01*
X629812Y600668D01*
X629382Y600468D01*
X628952Y600288D01*
X628502Y600128D01*
X628052Y599998D01*
X627592Y599888D01*
X627132Y599798D01*
X626662Y599738D01*
X626192Y599698D01*
X625722Y599688D01*
X600722D01*
Y617688D01*
X625722D01*
X626192Y617678D01*
D02*
G37*
G36*
Y643078D02*
X626662Y643038D01*
X627132Y642978D01*
X627592Y642888D01*
X628052Y642778D01*
X628502Y642648D01*
X628952Y642488D01*
X629382Y642308D01*
X629812Y642108D01*
X630222Y641878D01*
X630622Y641638D01*
X631012Y641368D01*
X631382Y641078D01*
X631742Y640778D01*
X632082Y640448D01*
X632412Y640108D01*
X632712Y639748D01*
X633002Y639378D01*
X633272Y638988D01*
X633512Y638588D01*
X633742Y638178D01*
X633942Y637748D01*
X634122Y637318D01*
X634282Y636868D01*
X634412Y636418D01*
X634522Y635958D01*
X634612Y635498D01*
X634672Y635028D01*
X634712Y634558D01*
X634722Y634088D01*
X634712Y633618D01*
X634672Y633148D01*
X634612Y632678D01*
X634522Y632218D01*
X634412Y631758D01*
X634282Y631308D01*
X634122Y630858D01*
X633942Y630428D01*
X633742Y629998D01*
X633512Y629588D01*
X633272Y629188D01*
X633002Y628798D01*
X632712Y628428D01*
X632412Y628068D01*
X632082Y627728D01*
X631742Y627398D01*
X631382Y627098D01*
X631012Y626808D01*
X630622Y626538D01*
X630222Y626298D01*
X629812Y626068D01*
X629382Y625868D01*
X628952Y625688D01*
X628502Y625528D01*
X628052Y625398D01*
X627592Y625288D01*
X627132Y625198D01*
X626662Y625138D01*
X626192Y625098D01*
X625722Y625088D01*
X600722D01*
Y643088D01*
X625722D01*
X626192Y643078D01*
D02*
G37*
G36*
X632032Y668468D02*
X632192Y668448D01*
X632342Y668418D01*
X632502Y668388D01*
X632652Y668338D01*
X632802Y668288D01*
X632942Y668228D01*
X633082Y668158D01*
X633222Y668088D01*
X633352Y668008D01*
X633482Y667918D01*
X633612Y667818D01*
X633732Y667718D01*
X633842Y667608D01*
X633952Y667498D01*
X634052Y667378D01*
X634152Y667248D01*
X634242Y667118D01*
X634322Y666988D01*
X634392Y666848D01*
X634462Y666708D01*
X634522Y666568D01*
X634572Y666418D01*
X634622Y666268D01*
X634652Y666108D01*
X634682Y665958D01*
X634702Y665798D01*
X634722Y665648D01*
Y665488D01*
Y653488D01*
Y653328D01*
X634702Y653178D01*
X634682Y653018D01*
X634652Y652868D01*
X634622Y652708D01*
X634572Y652558D01*
X634522Y652408D01*
X634462Y652268D01*
X634392Y652128D01*
X634322Y651988D01*
X634242Y651858D01*
X634152Y651728D01*
X634052Y651598D01*
X633952Y651478D01*
X633842Y651368D01*
X633732Y651258D01*
X633612Y651158D01*
X633482Y651058D01*
X633352Y650968D01*
X633222Y650888D01*
X633082Y650818D01*
X632942Y650748D01*
X632802Y650688D01*
X632652Y650638D01*
X632502Y650588D01*
X632342Y650558D01*
X632192Y650528D01*
X632032Y650508D01*
X631882Y650488D01*
X600722D01*
Y668488D01*
X631882D01*
X632032Y668468D01*
D02*
G37*
G36*
X626192Y693878D02*
X626662Y693838D01*
X627132Y693778D01*
X627592Y693688D01*
X628052Y693578D01*
X628502Y693448D01*
X628952Y693288D01*
X629382Y693108D01*
X629812Y692908D01*
X630222Y692678D01*
X630622Y692438D01*
X631012Y692168D01*
X631382Y691878D01*
X631742Y691578D01*
X632082Y691248D01*
X632412Y690908D01*
X632712Y690548D01*
X633002Y690178D01*
X633272Y689788D01*
X633512Y689388D01*
X633742Y688978D01*
X633942Y688548D01*
X634122Y688118D01*
X634282Y687668D01*
X634412Y687218D01*
X634522Y686758D01*
X634612Y686298D01*
X634672Y685828D01*
X634712Y685358D01*
X634722Y684888D01*
X634712Y684418D01*
X634672Y683948D01*
X634612Y683478D01*
X634522Y683018D01*
X634412Y682558D01*
X634282Y682108D01*
X634122Y681658D01*
X633942Y681228D01*
X633742Y680798D01*
X633512Y680388D01*
X633272Y679988D01*
X633002Y679598D01*
X632712Y679228D01*
X632412Y678868D01*
X632082Y678528D01*
X631742Y678198D01*
X631382Y677898D01*
X631012Y677608D01*
X630622Y677338D01*
X630222Y677098D01*
X629812Y676868D01*
X629382Y676668D01*
X628952Y676488D01*
X628502Y676328D01*
X628052Y676198D01*
X627592Y676088D01*
X627132Y675998D01*
X626662Y675938D01*
X626192Y675898D01*
X625722Y675888D01*
X600722D01*
Y693888D01*
X625722D01*
X626192Y693878D01*
D02*
G37*
G36*
Y719278D02*
X626662Y719238D01*
X627132Y719178D01*
X627592Y719088D01*
X628052Y718978D01*
X628502Y718848D01*
X628952Y718688D01*
X629382Y718508D01*
X629812Y718308D01*
X630222Y718078D01*
X630622Y717838D01*
X631012Y717568D01*
X631382Y717278D01*
X631742Y716978D01*
X632082Y716648D01*
X632412Y716308D01*
X632712Y715948D01*
X633002Y715578D01*
X633272Y715188D01*
X633512Y714788D01*
X633742Y714378D01*
X633942Y713948D01*
X634122Y713518D01*
X634282Y713068D01*
X634412Y712618D01*
X634522Y712158D01*
X634612Y711698D01*
X634672Y711228D01*
X634712Y710758D01*
X634722Y710288D01*
X634712Y709818D01*
X634672Y709348D01*
X634612Y708878D01*
X634522Y708418D01*
X634412Y707958D01*
X634282Y707508D01*
X634122Y707058D01*
X633942Y706628D01*
X633742Y706198D01*
X633512Y705788D01*
X633272Y705388D01*
X633002Y704998D01*
X632712Y704628D01*
X632412Y704268D01*
X632082Y703928D01*
X631742Y703598D01*
X631382Y703298D01*
X631012Y703008D01*
X630622Y702738D01*
X630222Y702498D01*
X629812Y702268D01*
X629382Y702068D01*
X628952Y701888D01*
X628502Y701728D01*
X628052Y701598D01*
X627592Y701488D01*
X627132Y701398D01*
X626662Y701338D01*
X626192Y701298D01*
X625722Y701288D01*
X600722D01*
Y719288D01*
X625722D01*
X626192Y719278D01*
D02*
G37*
G36*
X828522Y599688D02*
X803522D01*
X803052Y599698D01*
X802582Y599738D01*
X802112Y599798D01*
X801652Y599888D01*
X801192Y599998D01*
X800742Y600128D01*
X800292Y600288D01*
X799862Y600468D01*
X799432Y600668D01*
X799022Y600898D01*
X798622Y601138D01*
X798232Y601408D01*
X797862Y601698D01*
X797502Y601998D01*
X797162Y602328D01*
X796832Y602668D01*
X796532Y603028D01*
X796242Y603398D01*
X795972Y603788D01*
X795732Y604188D01*
X795502Y604598D01*
X795302Y605028D01*
X795122Y605458D01*
X794962Y605908D01*
X794832Y606358D01*
X794722Y606818D01*
X794632Y607278D01*
X794572Y607748D01*
X794532Y608218D01*
X794522Y608688D01*
X794532Y609158D01*
X794572Y609628D01*
X794632Y610098D01*
X794722Y610558D01*
X794832Y611018D01*
X794962Y611468D01*
X795122Y611918D01*
X795302Y612348D01*
X795502Y612778D01*
X795732Y613188D01*
X795972Y613588D01*
X796242Y613978D01*
X796532Y614348D01*
X796832Y614708D01*
X797162Y615048D01*
X797502Y615378D01*
X797862Y615678D01*
X798232Y615968D01*
X798622Y616238D01*
X799022Y616478D01*
X799432Y616708D01*
X799862Y616908D01*
X800292Y617088D01*
X800742Y617248D01*
X801192Y617378D01*
X801652Y617488D01*
X802112Y617578D01*
X802582Y617638D01*
X803052Y617678D01*
X803522Y617688D01*
X828522D01*
Y599688D01*
D02*
G37*
G36*
Y625088D02*
X803522D01*
X803052Y625098D01*
X802582Y625138D01*
X802112Y625198D01*
X801652Y625288D01*
X801192Y625398D01*
X800742Y625528D01*
X800292Y625688D01*
X799862Y625868D01*
X799432Y626068D01*
X799022Y626298D01*
X798622Y626538D01*
X798232Y626808D01*
X797862Y627098D01*
X797502Y627398D01*
X797162Y627728D01*
X796832Y628068D01*
X796532Y628428D01*
X796242Y628798D01*
X795972Y629188D01*
X795732Y629588D01*
X795502Y629998D01*
X795302Y630428D01*
X795122Y630858D01*
X794962Y631308D01*
X794832Y631758D01*
X794722Y632218D01*
X794632Y632678D01*
X794572Y633148D01*
X794532Y633618D01*
X794522Y634088D01*
X794532Y634558D01*
X794572Y635028D01*
X794632Y635498D01*
X794722Y635958D01*
X794832Y636418D01*
X794962Y636868D01*
X795122Y637318D01*
X795302Y637748D01*
X795502Y638178D01*
X795732Y638588D01*
X795972Y638988D01*
X796242Y639378D01*
X796532Y639748D01*
X796832Y640108D01*
X797162Y640448D01*
X797502Y640778D01*
X797862Y641078D01*
X798232Y641368D01*
X798622Y641638D01*
X799022Y641878D01*
X799432Y642108D01*
X799862Y642308D01*
X800292Y642488D01*
X800742Y642648D01*
X801192Y642778D01*
X801652Y642888D01*
X802112Y642978D01*
X802582Y643038D01*
X803052Y643078D01*
X803522Y643088D01*
X828522D01*
Y625088D01*
D02*
G37*
G36*
Y650488D02*
X797362D01*
X797212Y650508D01*
X797052Y650528D01*
X796902Y650558D01*
X796742Y650588D01*
X796592Y650638D01*
X796442Y650688D01*
X796302Y650748D01*
X796162Y650818D01*
X796022Y650888D01*
X795892Y650968D01*
X795762Y651058D01*
X795632Y651158D01*
X795512Y651258D01*
X795402Y651368D01*
X795292Y651478D01*
X795192Y651598D01*
X795092Y651728D01*
X795002Y651858D01*
X794922Y651988D01*
X794852Y652128D01*
X794782Y652268D01*
X794722Y652408D01*
X794672Y652558D01*
X794622Y652708D01*
X794592Y652868D01*
X794562Y653018D01*
X794542Y653178D01*
X794522Y653328D01*
Y653488D01*
Y665488D01*
Y665648D01*
X794542Y665798D01*
X794562Y665958D01*
X794592Y666108D01*
X794622Y666268D01*
X794672Y666418D01*
X794722Y666568D01*
X794782Y666708D01*
X794852Y666848D01*
X794922Y666988D01*
X795002Y667118D01*
X795092Y667248D01*
X795192Y667378D01*
X795292Y667498D01*
X795402Y667608D01*
X795512Y667718D01*
X795632Y667818D01*
X795762Y667918D01*
X795892Y668008D01*
X796022Y668088D01*
X796162Y668158D01*
X796302Y668228D01*
X796442Y668288D01*
X796592Y668338D01*
X796742Y668388D01*
X796902Y668418D01*
X797052Y668448D01*
X797212Y668468D01*
X797362Y668488D01*
X828522D01*
Y650488D01*
D02*
G37*
G36*
Y675888D02*
X803522D01*
X803052Y675898D01*
X802582Y675938D01*
X802112Y675998D01*
X801652Y676088D01*
X801192Y676198D01*
X800742Y676328D01*
X800292Y676488D01*
X799862Y676668D01*
X799432Y676868D01*
X799022Y677098D01*
X798622Y677338D01*
X798232Y677608D01*
X797862Y677898D01*
X797502Y678198D01*
X797162Y678528D01*
X796832Y678868D01*
X796532Y679228D01*
X796242Y679598D01*
X795972Y679988D01*
X795732Y680388D01*
X795502Y680798D01*
X795302Y681228D01*
X795122Y681658D01*
X794962Y682108D01*
X794832Y682558D01*
X794722Y683018D01*
X794632Y683478D01*
X794572Y683948D01*
X794532Y684418D01*
X794522Y684888D01*
X794532Y685358D01*
X794572Y685828D01*
X794632Y686298D01*
X794722Y686758D01*
X794832Y687218D01*
X794962Y687668D01*
X795122Y688118D01*
X795302Y688548D01*
X795502Y688978D01*
X795732Y689388D01*
X795972Y689788D01*
X796242Y690178D01*
X796532Y690548D01*
X796832Y690908D01*
X797162Y691248D01*
X797502Y691578D01*
X797862Y691878D01*
X798232Y692168D01*
X798622Y692438D01*
X799022Y692678D01*
X799432Y692908D01*
X799862Y693108D01*
X800292Y693288D01*
X800742Y693448D01*
X801192Y693578D01*
X801652Y693688D01*
X802112Y693778D01*
X802582Y693838D01*
X803052Y693878D01*
X803522Y693888D01*
X828522D01*
Y675888D01*
D02*
G37*
G36*
Y701288D02*
X803522D01*
X803052Y701298D01*
X802582Y701338D01*
X802112Y701398D01*
X801652Y701488D01*
X801192Y701598D01*
X800742Y701728D01*
X800292Y701888D01*
X799862Y702068D01*
X799432Y702268D01*
X799022Y702498D01*
X798622Y702738D01*
X798232Y703008D01*
X797862Y703298D01*
X797502Y703598D01*
X797162Y703928D01*
X796832Y704268D01*
X796532Y704628D01*
X796242Y704998D01*
X795972Y705388D01*
X795732Y705788D01*
X795502Y706198D01*
X795302Y706628D01*
X795122Y707058D01*
X794962Y707508D01*
X794832Y707958D01*
X794722Y708418D01*
X794632Y708878D01*
X794572Y709348D01*
X794532Y709818D01*
X794522Y710288D01*
X794532Y710758D01*
X794572Y711228D01*
X794632Y711698D01*
X794722Y712158D01*
X794832Y712618D01*
X794962Y713068D01*
X795122Y713518D01*
X795302Y713948D01*
X795502Y714378D01*
X795732Y714788D01*
X795972Y715188D01*
X796242Y715578D01*
X796532Y715948D01*
X796832Y716308D01*
X797162Y716648D01*
X797502Y716978D01*
X797862Y717278D01*
X798232Y717568D01*
X798622Y717838D01*
X799022Y718078D01*
X799432Y718308D01*
X799862Y718508D01*
X800292Y718688D01*
X800742Y718848D01*
X801192Y718978D01*
X801652Y719088D01*
X802112Y719178D01*
X802582Y719238D01*
X803052Y719278D01*
X803522Y719288D01*
X828522D01*
Y701288D01*
D02*
G37*
G36*
X626192Y744678D02*
X626662Y744638D01*
X627132Y744578D01*
X627592Y744488D01*
X628052Y744378D01*
X628502Y744248D01*
X628952Y744088D01*
X629382Y743908D01*
X629812Y743708D01*
X630222Y743478D01*
X630622Y743238D01*
X631012Y742968D01*
X631382Y742678D01*
X631742Y742378D01*
X632082Y742048D01*
X632412Y741708D01*
X632712Y741348D01*
X633002Y740978D01*
X633272Y740588D01*
X633512Y740188D01*
X633742Y739778D01*
X633942Y739348D01*
X634122Y738918D01*
X634282Y738468D01*
X634412Y738018D01*
X634522Y737558D01*
X634612Y737098D01*
X634672Y736628D01*
X634712Y736158D01*
X634722Y735688D01*
X634712Y735218D01*
X634672Y734748D01*
X634612Y734278D01*
X634522Y733818D01*
X634412Y733358D01*
X634282Y732908D01*
X634122Y732458D01*
X633942Y732028D01*
X633742Y731598D01*
X633512Y731188D01*
X633272Y730788D01*
X633002Y730398D01*
X632712Y730028D01*
X632412Y729668D01*
X632082Y729328D01*
X631742Y728998D01*
X631382Y728698D01*
X631012Y728408D01*
X630622Y728138D01*
X630222Y727898D01*
X629812Y727668D01*
X629382Y727468D01*
X628952Y727288D01*
X628502Y727128D01*
X628052Y726998D01*
X627592Y726888D01*
X627132Y726798D01*
X626662Y726738D01*
X626192Y726698D01*
X625722Y726688D01*
X600722D01*
Y744688D01*
X625722D01*
X626192Y744678D01*
D02*
G37*
G36*
Y770078D02*
X626662Y770038D01*
X627132Y769978D01*
X627592Y769888D01*
X628052Y769778D01*
X628502Y769648D01*
X628952Y769488D01*
X629382Y769308D01*
X629812Y769108D01*
X630222Y768878D01*
X630622Y768638D01*
X631012Y768368D01*
X631382Y768078D01*
X631742Y767778D01*
X632082Y767448D01*
X632412Y767108D01*
X632712Y766748D01*
X633002Y766378D01*
X633272Y765988D01*
X633512Y765588D01*
X633742Y765178D01*
X633942Y764748D01*
X634122Y764318D01*
X634282Y763868D01*
X634412Y763418D01*
X634522Y762958D01*
X634612Y762498D01*
X634672Y762028D01*
X634712Y761558D01*
X634722Y761088D01*
X634712Y760618D01*
X634672Y760148D01*
X634612Y759678D01*
X634522Y759218D01*
X634412Y758758D01*
X634282Y758308D01*
X634122Y757858D01*
X633942Y757428D01*
X633742Y756998D01*
X633512Y756588D01*
X633272Y756188D01*
X633002Y755798D01*
X632712Y755428D01*
X632412Y755068D01*
X632082Y754728D01*
X631742Y754398D01*
X631382Y754098D01*
X631012Y753808D01*
X630622Y753538D01*
X630222Y753298D01*
X629812Y753068D01*
X629382Y752868D01*
X628952Y752688D01*
X628502Y752528D01*
X628052Y752398D01*
X627592Y752288D01*
X627132Y752198D01*
X626662Y752138D01*
X626192Y752098D01*
X625722Y752088D01*
X600722D01*
Y770088D01*
X625722D01*
X626192Y770078D01*
D02*
G37*
G36*
X632032Y795468D02*
X632192Y795448D01*
X632342Y795418D01*
X632502Y795388D01*
X632652Y795338D01*
X632802Y795288D01*
X632942Y795228D01*
X633082Y795158D01*
X633222Y795088D01*
X633352Y795008D01*
X633482Y794918D01*
X633612Y794818D01*
X633732Y794718D01*
X633842Y794608D01*
X633952Y794498D01*
X634052Y794378D01*
X634152Y794248D01*
X634242Y794118D01*
X634322Y793988D01*
X634392Y793848D01*
X634462Y793708D01*
X634522Y793568D01*
X634572Y793418D01*
X634622Y793268D01*
X634652Y793108D01*
X634682Y792958D01*
X634702Y792798D01*
X634722Y792648D01*
Y792488D01*
Y780488D01*
Y780328D01*
X634702Y780178D01*
X634682Y780018D01*
X634652Y779868D01*
X634622Y779708D01*
X634572Y779558D01*
X634522Y779408D01*
X634462Y779268D01*
X634392Y779128D01*
X634322Y778988D01*
X634242Y778858D01*
X634152Y778728D01*
X634052Y778598D01*
X633952Y778478D01*
X633842Y778368D01*
X633732Y778258D01*
X633612Y778158D01*
X633482Y778058D01*
X633352Y777968D01*
X633222Y777888D01*
X633082Y777818D01*
X632942Y777748D01*
X632802Y777688D01*
X632652Y777638D01*
X632502Y777588D01*
X632342Y777558D01*
X632192Y777528D01*
X632032Y777508D01*
X631882Y777488D01*
X600722D01*
Y795488D01*
X631882D01*
X632032Y795468D01*
D02*
G37*
G36*
X626192Y820878D02*
X626662Y820838D01*
X627132Y820778D01*
X627592Y820688D01*
X628052Y820578D01*
X628502Y820448D01*
X628952Y820288D01*
X629382Y820108D01*
X629812Y819908D01*
X630222Y819678D01*
X630622Y819438D01*
X631012Y819168D01*
X631382Y818878D01*
X631742Y818578D01*
X632082Y818248D01*
X632412Y817908D01*
X632712Y817548D01*
X633002Y817178D01*
X633272Y816788D01*
X633512Y816388D01*
X633742Y815978D01*
X633942Y815548D01*
X634122Y815118D01*
X634282Y814668D01*
X634412Y814218D01*
X634522Y813758D01*
X634612Y813298D01*
X634672Y812828D01*
X634712Y812358D01*
X634722Y811888D01*
X634712Y811418D01*
X634672Y810948D01*
X634612Y810478D01*
X634522Y810018D01*
X634412Y809558D01*
X634282Y809108D01*
X634122Y808658D01*
X633942Y808228D01*
X633742Y807798D01*
X633512Y807388D01*
X633272Y806988D01*
X633002Y806598D01*
X632712Y806228D01*
X632412Y805868D01*
X632082Y805528D01*
X631742Y805198D01*
X631382Y804898D01*
X631012Y804608D01*
X630622Y804338D01*
X630222Y804098D01*
X629812Y803868D01*
X629382Y803668D01*
X628952Y803488D01*
X628502Y803328D01*
X628052Y803198D01*
X627592Y803088D01*
X627132Y802998D01*
X626662Y802938D01*
X626192Y802898D01*
X625722Y802888D01*
X600722D01*
Y820888D01*
X625722D01*
X626192Y820878D01*
D02*
G37*
G36*
Y846278D02*
X626662Y846238D01*
X627132Y846178D01*
X627592Y846088D01*
X628052Y845978D01*
X628502Y845848D01*
X628952Y845688D01*
X629382Y845508D01*
X629812Y845308D01*
X630222Y845078D01*
X630622Y844838D01*
X631012Y844568D01*
X631382Y844278D01*
X631742Y843978D01*
X632082Y843648D01*
X632412Y843308D01*
X632712Y842948D01*
X633002Y842578D01*
X633272Y842188D01*
X633512Y841788D01*
X633742Y841378D01*
X633942Y840948D01*
X634122Y840518D01*
X634282Y840068D01*
X634412Y839618D01*
X634522Y839158D01*
X634612Y838698D01*
X634672Y838228D01*
X634712Y837758D01*
X634722Y837288D01*
X634712Y836818D01*
X634672Y836348D01*
X634612Y835878D01*
X634522Y835418D01*
X634412Y834958D01*
X634282Y834508D01*
X634122Y834058D01*
X633942Y833628D01*
X633742Y833198D01*
X633512Y832788D01*
X633272Y832388D01*
X633002Y831998D01*
X632712Y831628D01*
X632412Y831268D01*
X632082Y830928D01*
X631742Y830598D01*
X631382Y830298D01*
X631012Y830008D01*
X630622Y829738D01*
X630222Y829498D01*
X629812Y829268D01*
X629382Y829068D01*
X628952Y828888D01*
X628502Y828728D01*
X628052Y828598D01*
X627592Y828488D01*
X627132Y828398D01*
X626662Y828338D01*
X626192Y828298D01*
X625722Y828288D01*
X600722D01*
Y846288D01*
X625722D01*
X626192Y846278D01*
D02*
G37*
G36*
X828522Y726688D02*
X803522D01*
X803052Y726698D01*
X802582Y726738D01*
X802112Y726798D01*
X801652Y726888D01*
X801192Y726998D01*
X800742Y727128D01*
X800292Y727288D01*
X799862Y727468D01*
X799432Y727668D01*
X799022Y727898D01*
X798622Y728138D01*
X798232Y728408D01*
X797862Y728698D01*
X797502Y728998D01*
X797162Y729328D01*
X796832Y729668D01*
X796532Y730028D01*
X796242Y730398D01*
X795972Y730788D01*
X795732Y731188D01*
X795502Y731598D01*
X795302Y732028D01*
X795122Y732458D01*
X794962Y732908D01*
X794832Y733358D01*
X794722Y733818D01*
X794632Y734278D01*
X794572Y734748D01*
X794532Y735218D01*
X794522Y735688D01*
X794532Y736158D01*
X794572Y736628D01*
X794632Y737098D01*
X794722Y737558D01*
X794832Y738018D01*
X794962Y738468D01*
X795122Y738918D01*
X795302Y739348D01*
X795502Y739778D01*
X795732Y740188D01*
X795972Y740588D01*
X796242Y740978D01*
X796532Y741348D01*
X796832Y741708D01*
X797162Y742048D01*
X797502Y742378D01*
X797862Y742678D01*
X798232Y742968D01*
X798622Y743238D01*
X799022Y743478D01*
X799432Y743708D01*
X799862Y743908D01*
X800292Y744088D01*
X800742Y744248D01*
X801192Y744378D01*
X801652Y744488D01*
X802112Y744578D01*
X802582Y744638D01*
X803052Y744678D01*
X803522Y744688D01*
X828522D01*
Y726688D01*
D02*
G37*
G36*
Y752088D02*
X803522D01*
X803052Y752098D01*
X802582Y752138D01*
X802112Y752198D01*
X801652Y752288D01*
X801192Y752398D01*
X800742Y752528D01*
X800292Y752688D01*
X799862Y752868D01*
X799432Y753068D01*
X799022Y753298D01*
X798622Y753538D01*
X798232Y753808D01*
X797862Y754098D01*
X797502Y754398D01*
X797162Y754728D01*
X796832Y755068D01*
X796532Y755428D01*
X796242Y755798D01*
X795972Y756188D01*
X795732Y756588D01*
X795502Y756998D01*
X795302Y757428D01*
X795122Y757858D01*
X794962Y758308D01*
X794832Y758758D01*
X794722Y759218D01*
X794632Y759678D01*
X794572Y760148D01*
X794532Y760618D01*
X794522Y761088D01*
X794532Y761558D01*
X794572Y762028D01*
X794632Y762498D01*
X794722Y762958D01*
X794832Y763418D01*
X794962Y763868D01*
X795122Y764318D01*
X795302Y764748D01*
X795502Y765178D01*
X795732Y765588D01*
X795972Y765988D01*
X796242Y766378D01*
X796532Y766748D01*
X796832Y767108D01*
X797162Y767448D01*
X797502Y767778D01*
X797862Y768078D01*
X798232Y768368D01*
X798622Y768638D01*
X799022Y768878D01*
X799432Y769108D01*
X799862Y769308D01*
X800292Y769488D01*
X800742Y769648D01*
X801192Y769778D01*
X801652Y769888D01*
X802112Y769978D01*
X802582Y770038D01*
X803052Y770078D01*
X803522Y770088D01*
X828522D01*
Y752088D01*
D02*
G37*
G36*
Y777488D02*
X797362D01*
X797212Y777508D01*
X797052Y777528D01*
X796902Y777558D01*
X796742Y777588D01*
X796592Y777638D01*
X796442Y777688D01*
X796302Y777748D01*
X796162Y777818D01*
X796022Y777888D01*
X795892Y777968D01*
X795762Y778058D01*
X795632Y778158D01*
X795512Y778258D01*
X795402Y778368D01*
X795292Y778478D01*
X795192Y778598D01*
X795092Y778728D01*
X795002Y778858D01*
X794922Y778988D01*
X794852Y779128D01*
X794782Y779268D01*
X794722Y779408D01*
X794672Y779558D01*
X794622Y779708D01*
X794592Y779868D01*
X794562Y780018D01*
X794542Y780178D01*
X794522Y780328D01*
Y780488D01*
Y792488D01*
Y792648D01*
X794542Y792798D01*
X794562Y792958D01*
X794592Y793108D01*
X794622Y793268D01*
X794672Y793418D01*
X794722Y793568D01*
X794782Y793708D01*
X794852Y793848D01*
X794922Y793988D01*
X795002Y794118D01*
X795092Y794248D01*
X795192Y794378D01*
X795292Y794498D01*
X795402Y794608D01*
X795512Y794718D01*
X795632Y794818D01*
X795762Y794918D01*
X795892Y795008D01*
X796022Y795088D01*
X796162Y795158D01*
X796302Y795228D01*
X796442Y795288D01*
X796592Y795338D01*
X796742Y795388D01*
X796902Y795418D01*
X797052Y795448D01*
X797212Y795468D01*
X797362Y795488D01*
X828522D01*
Y777488D01*
D02*
G37*
G36*
Y802888D02*
X803522D01*
X803052Y802898D01*
X802582Y802938D01*
X802112Y802998D01*
X801652Y803088D01*
X801192Y803198D01*
X800742Y803328D01*
X800292Y803488D01*
X799862Y803668D01*
X799432Y803868D01*
X799022Y804098D01*
X798622Y804338D01*
X798232Y804608D01*
X797862Y804898D01*
X797502Y805198D01*
X797162Y805528D01*
X796832Y805868D01*
X796532Y806228D01*
X796242Y806598D01*
X795972Y806988D01*
X795732Y807388D01*
X795502Y807798D01*
X795302Y808228D01*
X795122Y808658D01*
X794962Y809108D01*
X794832Y809558D01*
X794722Y810018D01*
X794632Y810478D01*
X794572Y810948D01*
X794532Y811418D01*
X794522Y811888D01*
X794532Y812358D01*
X794572Y812828D01*
X794632Y813298D01*
X794722Y813758D01*
X794832Y814218D01*
X794962Y814668D01*
X795122Y815118D01*
X795302Y815548D01*
X795502Y815978D01*
X795732Y816388D01*
X795972Y816788D01*
X796242Y817178D01*
X796532Y817548D01*
X796832Y817908D01*
X797162Y818248D01*
X797502Y818578D01*
X797862Y818878D01*
X798232Y819168D01*
X798622Y819438D01*
X799022Y819678D01*
X799432Y819908D01*
X799862Y820108D01*
X800292Y820288D01*
X800742Y820448D01*
X801192Y820578D01*
X801652Y820688D01*
X802112Y820778D01*
X802582Y820838D01*
X803052Y820878D01*
X803522Y820888D01*
X828522D01*
Y802888D01*
D02*
G37*
G36*
Y828288D02*
X803522D01*
X803052Y828298D01*
X802582Y828338D01*
X802112Y828398D01*
X801652Y828488D01*
X801192Y828598D01*
X800742Y828728D01*
X800292Y828888D01*
X799862Y829068D01*
X799432Y829268D01*
X799022Y829498D01*
X798622Y829738D01*
X798232Y830008D01*
X797862Y830298D01*
X797502Y830598D01*
X797162Y830928D01*
X796832Y831268D01*
X796532Y831628D01*
X796242Y831998D01*
X795972Y832388D01*
X795732Y832788D01*
X795502Y833198D01*
X795302Y833628D01*
X795122Y834058D01*
X794962Y834508D01*
X794832Y834958D01*
X794722Y835418D01*
X794632Y835878D01*
X794572Y836348D01*
X794532Y836818D01*
X794522Y837288D01*
X794532Y837758D01*
X794572Y838228D01*
X794632Y838698D01*
X794722Y839158D01*
X794832Y839618D01*
X794962Y840068D01*
X795122Y840518D01*
X795302Y840948D01*
X795502Y841378D01*
X795732Y841788D01*
X795972Y842188D01*
X796242Y842578D01*
X796532Y842948D01*
X796832Y843308D01*
X797162Y843648D01*
X797502Y843978D01*
X797862Y844278D01*
X798232Y844568D01*
X798622Y844838D01*
X799022Y845078D01*
X799432Y845308D01*
X799862Y845508D01*
X800292Y845688D01*
X800742Y845848D01*
X801192Y845978D01*
X801652Y846088D01*
X802112Y846178D01*
X802582Y846238D01*
X803052Y846278D01*
X803522Y846288D01*
X828522D01*
Y828288D01*
D02*
G37*
G36*
X626192Y871678D02*
X626662Y871638D01*
X627132Y871578D01*
X627592Y871488D01*
X628052Y871378D01*
X628502Y871248D01*
X628952Y871088D01*
X629382Y870908D01*
X629812Y870708D01*
X630222Y870478D01*
X630622Y870238D01*
X631012Y869968D01*
X631382Y869678D01*
X631742Y869378D01*
X632082Y869048D01*
X632412Y868708D01*
X632712Y868348D01*
X633002Y867978D01*
X633272Y867588D01*
X633512Y867188D01*
X633742Y866778D01*
X633942Y866348D01*
X634122Y865918D01*
X634282Y865468D01*
X634412Y865018D01*
X634522Y864558D01*
X634612Y864098D01*
X634672Y863628D01*
X634712Y863158D01*
X634722Y862688D01*
X634712Y862218D01*
X634672Y861748D01*
X634612Y861278D01*
X634522Y860818D01*
X634412Y860358D01*
X634282Y859908D01*
X634122Y859458D01*
X633942Y859028D01*
X633742Y858598D01*
X633512Y858188D01*
X633272Y857788D01*
X633002Y857398D01*
X632712Y857028D01*
X632412Y856668D01*
X632082Y856328D01*
X631742Y855998D01*
X631382Y855698D01*
X631012Y855408D01*
X630622Y855138D01*
X630222Y854898D01*
X629812Y854668D01*
X629382Y854468D01*
X628952Y854288D01*
X628502Y854128D01*
X628052Y853998D01*
X627592Y853888D01*
X627132Y853798D01*
X626662Y853738D01*
X626192Y853698D01*
X625722Y853688D01*
X600722D01*
Y871688D01*
X625722D01*
X626192Y871678D01*
D02*
G37*
G36*
Y897078D02*
X626662Y897038D01*
X627132Y896978D01*
X627592Y896888D01*
X628052Y896778D01*
X628502Y896648D01*
X628952Y896488D01*
X629382Y896308D01*
X629812Y896108D01*
X630222Y895878D01*
X630622Y895638D01*
X631012Y895368D01*
X631382Y895078D01*
X631742Y894778D01*
X632082Y894448D01*
X632412Y894108D01*
X632712Y893748D01*
X633002Y893378D01*
X633272Y892988D01*
X633512Y892588D01*
X633742Y892178D01*
X633942Y891748D01*
X634122Y891318D01*
X634282Y890868D01*
X634412Y890418D01*
X634522Y889958D01*
X634612Y889498D01*
X634672Y889028D01*
X634712Y888558D01*
X634722Y888088D01*
X634712Y887618D01*
X634672Y887148D01*
X634612Y886678D01*
X634522Y886218D01*
X634412Y885758D01*
X634282Y885308D01*
X634122Y884858D01*
X633942Y884428D01*
X633742Y883998D01*
X633512Y883588D01*
X633272Y883188D01*
X633002Y882798D01*
X632712Y882428D01*
X632412Y882068D01*
X632082Y881728D01*
X631742Y881398D01*
X631382Y881098D01*
X631012Y880808D01*
X630622Y880538D01*
X630222Y880298D01*
X629812Y880068D01*
X629382Y879868D01*
X628952Y879688D01*
X628502Y879528D01*
X628052Y879398D01*
X627592Y879288D01*
X627132Y879198D01*
X626662Y879138D01*
X626192Y879098D01*
X625722Y879088D01*
X600722D01*
Y897088D01*
X625722D01*
X626192Y897078D01*
D02*
G37*
G36*
X632032Y922468D02*
X632192Y922448D01*
X632342Y922418D01*
X632502Y922388D01*
X632652Y922338D01*
X632802Y922288D01*
X632942Y922228D01*
X633082Y922158D01*
X633222Y922088D01*
X633352Y922008D01*
X633482Y921918D01*
X633612Y921818D01*
X633732Y921718D01*
X633842Y921608D01*
X633952Y921498D01*
X634052Y921378D01*
X634152Y921248D01*
X634242Y921118D01*
X634322Y920988D01*
X634392Y920848D01*
X634462Y920708D01*
X634522Y920568D01*
X634572Y920418D01*
X634622Y920268D01*
X634652Y920108D01*
X634682Y919958D01*
X634702Y919798D01*
X634722Y919648D01*
Y919488D01*
Y907488D01*
Y907328D01*
X634702Y907178D01*
X634682Y907018D01*
X634652Y906868D01*
X634622Y906708D01*
X634572Y906558D01*
X634522Y906408D01*
X634462Y906268D01*
X634392Y906128D01*
X634322Y905988D01*
X634242Y905858D01*
X634152Y905728D01*
X634052Y905598D01*
X633952Y905478D01*
X633842Y905368D01*
X633732Y905258D01*
X633612Y905158D01*
X633482Y905058D01*
X633352Y904968D01*
X633222Y904888D01*
X633082Y904818D01*
X632942Y904748D01*
X632802Y904688D01*
X632652Y904638D01*
X632502Y904588D01*
X632342Y904558D01*
X632192Y904528D01*
X632032Y904508D01*
X631882Y904488D01*
X600722D01*
Y922488D01*
X631882D01*
X632032Y922468D01*
D02*
G37*
G36*
X626192Y947878D02*
X626662Y947838D01*
X627132Y947778D01*
X627592Y947688D01*
X628052Y947578D01*
X628502Y947448D01*
X628952Y947288D01*
X629382Y947108D01*
X629812Y946908D01*
X630222Y946678D01*
X630622Y946438D01*
X631012Y946168D01*
X631382Y945878D01*
X631742Y945578D01*
X632082Y945248D01*
X632412Y944908D01*
X632712Y944548D01*
X633002Y944178D01*
X633272Y943788D01*
X633512Y943388D01*
X633742Y942978D01*
X633942Y942548D01*
X634122Y942118D01*
X634282Y941668D01*
X634412Y941218D01*
X634522Y940758D01*
X634612Y940298D01*
X634672Y939828D01*
X634712Y939358D01*
X634722Y938888D01*
X634712Y938418D01*
X634672Y937948D01*
X634612Y937478D01*
X634522Y937018D01*
X634412Y936558D01*
X634282Y936108D01*
X634122Y935658D01*
X633942Y935228D01*
X633742Y934798D01*
X633512Y934388D01*
X633272Y933988D01*
X633002Y933598D01*
X632712Y933228D01*
X632412Y932868D01*
X632082Y932528D01*
X631742Y932198D01*
X631382Y931898D01*
X631012Y931608D01*
X630622Y931338D01*
X630222Y931098D01*
X629812Y930868D01*
X629382Y930668D01*
X628952Y930488D01*
X628502Y930328D01*
X628052Y930198D01*
X627592Y930088D01*
X627132Y929998D01*
X626662Y929938D01*
X626192Y929898D01*
X625722Y929888D01*
X600722D01*
Y947888D01*
X625722D01*
X626192Y947878D01*
D02*
G37*
G36*
Y973278D02*
X626662Y973238D01*
X627132Y973178D01*
X627592Y973088D01*
X628052Y972978D01*
X628502Y972848D01*
X628952Y972688D01*
X629382Y972508D01*
X629812Y972308D01*
X630222Y972078D01*
X630622Y971838D01*
X631012Y971568D01*
X631382Y971278D01*
X631742Y970978D01*
X632082Y970648D01*
X632412Y970308D01*
X632712Y969948D01*
X633002Y969578D01*
X633272Y969188D01*
X633512Y968788D01*
X633742Y968378D01*
X633942Y967948D01*
X634122Y967518D01*
X634282Y967068D01*
X634412Y966618D01*
X634522Y966158D01*
X634612Y965698D01*
X634672Y965228D01*
X634712Y964758D01*
X634722Y964288D01*
X634712Y963818D01*
X634672Y963348D01*
X634612Y962878D01*
X634522Y962418D01*
X634412Y961958D01*
X634282Y961508D01*
X634122Y961058D01*
X633942Y960628D01*
X633742Y960198D01*
X633512Y959788D01*
X633272Y959388D01*
X633002Y958998D01*
X632712Y958628D01*
X632412Y958268D01*
X632082Y957928D01*
X631742Y957598D01*
X631382Y957298D01*
X631012Y957008D01*
X630622Y956738D01*
X630222Y956498D01*
X629812Y956268D01*
X629382Y956068D01*
X628952Y955888D01*
X628502Y955728D01*
X628052Y955598D01*
X627592Y955488D01*
X627132Y955398D01*
X626662Y955338D01*
X626192Y955298D01*
X625722Y955288D01*
X600722D01*
Y973288D01*
X625722D01*
X626192Y973278D01*
D02*
G37*
G36*
X828522Y853688D02*
X803522D01*
X803052Y853698D01*
X802582Y853738D01*
X802112Y853798D01*
X801652Y853888D01*
X801192Y853998D01*
X800742Y854128D01*
X800292Y854288D01*
X799862Y854468D01*
X799432Y854668D01*
X799022Y854898D01*
X798622Y855138D01*
X798232Y855408D01*
X797862Y855698D01*
X797502Y855998D01*
X797162Y856328D01*
X796832Y856668D01*
X796532Y857028D01*
X796242Y857398D01*
X795972Y857788D01*
X795732Y858188D01*
X795502Y858598D01*
X795302Y859028D01*
X795122Y859458D01*
X794962Y859908D01*
X794832Y860358D01*
X794722Y860818D01*
X794632Y861278D01*
X794572Y861748D01*
X794532Y862218D01*
X794522Y862688D01*
X794532Y863158D01*
X794572Y863628D01*
X794632Y864098D01*
X794722Y864558D01*
X794832Y865018D01*
X794962Y865468D01*
X795122Y865918D01*
X795302Y866348D01*
X795502Y866778D01*
X795732Y867188D01*
X795972Y867588D01*
X796242Y867978D01*
X796532Y868348D01*
X796832Y868708D01*
X797162Y869048D01*
X797502Y869378D01*
X797862Y869678D01*
X798232Y869968D01*
X798622Y870238D01*
X799022Y870478D01*
X799432Y870708D01*
X799862Y870908D01*
X800292Y871088D01*
X800742Y871248D01*
X801192Y871378D01*
X801652Y871488D01*
X802112Y871578D01*
X802582Y871638D01*
X803052Y871678D01*
X803522Y871688D01*
X828522D01*
Y853688D01*
D02*
G37*
G36*
Y879088D02*
X803522D01*
X803052Y879098D01*
X802582Y879138D01*
X802112Y879198D01*
X801652Y879288D01*
X801192Y879398D01*
X800742Y879528D01*
X800292Y879688D01*
X799862Y879868D01*
X799432Y880068D01*
X799022Y880298D01*
X798622Y880538D01*
X798232Y880808D01*
X797862Y881098D01*
X797502Y881398D01*
X797162Y881728D01*
X796832Y882068D01*
X796532Y882428D01*
X796242Y882798D01*
X795972Y883188D01*
X795732Y883588D01*
X795502Y883998D01*
X795302Y884428D01*
X795122Y884858D01*
X794962Y885308D01*
X794832Y885758D01*
X794722Y886218D01*
X794632Y886678D01*
X794572Y887148D01*
X794532Y887618D01*
X794522Y888088D01*
X794532Y888558D01*
X794572Y889028D01*
X794632Y889498D01*
X794722Y889958D01*
X794832Y890418D01*
X794962Y890868D01*
X795122Y891318D01*
X795302Y891748D01*
X795502Y892178D01*
X795732Y892588D01*
X795972Y892988D01*
X796242Y893378D01*
X796532Y893748D01*
X796832Y894108D01*
X797162Y894448D01*
X797502Y894778D01*
X797862Y895078D01*
X798232Y895368D01*
X798622Y895638D01*
X799022Y895878D01*
X799432Y896108D01*
X799862Y896308D01*
X800292Y896488D01*
X800742Y896648D01*
X801192Y896778D01*
X801652Y896888D01*
X802112Y896978D01*
X802582Y897038D01*
X803052Y897078D01*
X803522Y897088D01*
X828522D01*
Y879088D01*
D02*
G37*
G36*
Y904488D02*
X797362D01*
X797212Y904508D01*
X797052Y904528D01*
X796902Y904558D01*
X796742Y904588D01*
X796592Y904638D01*
X796442Y904688D01*
X796302Y904748D01*
X796162Y904818D01*
X796022Y904888D01*
X795892Y904968D01*
X795762Y905058D01*
X795632Y905158D01*
X795512Y905258D01*
X795402Y905368D01*
X795292Y905478D01*
X795192Y905598D01*
X795092Y905728D01*
X795002Y905858D01*
X794922Y905988D01*
X794852Y906128D01*
X794782Y906268D01*
X794722Y906408D01*
X794672Y906558D01*
X794622Y906708D01*
X794592Y906868D01*
X794562Y907018D01*
X794542Y907178D01*
X794522Y907328D01*
Y907488D01*
Y919488D01*
Y919648D01*
X794542Y919798D01*
X794562Y919958D01*
X794592Y920108D01*
X794622Y920268D01*
X794672Y920418D01*
X794722Y920568D01*
X794782Y920708D01*
X794852Y920848D01*
X794922Y920988D01*
X795002Y921118D01*
X795092Y921248D01*
X795192Y921378D01*
X795292Y921498D01*
X795402Y921608D01*
X795512Y921718D01*
X795632Y921818D01*
X795762Y921918D01*
X795892Y922008D01*
X796022Y922088D01*
X796162Y922158D01*
X796302Y922228D01*
X796442Y922288D01*
X796592Y922338D01*
X796742Y922388D01*
X796902Y922418D01*
X797052Y922448D01*
X797212Y922468D01*
X797362Y922488D01*
X828522D01*
Y904488D01*
D02*
G37*
G36*
Y929888D02*
X803522D01*
X803052Y929898D01*
X802582Y929938D01*
X802112Y929998D01*
X801652Y930088D01*
X801192Y930198D01*
X800742Y930328D01*
X800292Y930488D01*
X799862Y930668D01*
X799432Y930868D01*
X799022Y931098D01*
X798622Y931338D01*
X798232Y931608D01*
X797862Y931898D01*
X797502Y932198D01*
X797162Y932528D01*
X796832Y932868D01*
X796532Y933228D01*
X796242Y933598D01*
X795972Y933988D01*
X795732Y934388D01*
X795502Y934798D01*
X795302Y935228D01*
X795122Y935658D01*
X794962Y936108D01*
X794832Y936558D01*
X794722Y937018D01*
X794632Y937478D01*
X794572Y937948D01*
X794532Y938418D01*
X794522Y938888D01*
X794532Y939358D01*
X794572Y939828D01*
X794632Y940298D01*
X794722Y940758D01*
X794832Y941218D01*
X794962Y941668D01*
X795122Y942118D01*
X795302Y942548D01*
X795502Y942978D01*
X795732Y943388D01*
X795972Y943788D01*
X796242Y944178D01*
X796532Y944548D01*
X796832Y944908D01*
X797162Y945248D01*
X797502Y945578D01*
X797862Y945878D01*
X798232Y946168D01*
X798622Y946438D01*
X799022Y946678D01*
X799432Y946908D01*
X799862Y947108D01*
X800292Y947288D01*
X800742Y947448D01*
X801192Y947578D01*
X801652Y947688D01*
X802112Y947778D01*
X802582Y947838D01*
X803052Y947878D01*
X803522Y947888D01*
X828522D01*
Y929888D01*
D02*
G37*
G36*
Y955288D02*
X803522D01*
X803052Y955298D01*
X802582Y955338D01*
X802112Y955398D01*
X801652Y955488D01*
X801192Y955598D01*
X800742Y955728D01*
X800292Y955888D01*
X799862Y956068D01*
X799432Y956268D01*
X799022Y956498D01*
X798622Y956738D01*
X798232Y957008D01*
X797862Y957298D01*
X797502Y957598D01*
X797162Y957928D01*
X796832Y958268D01*
X796532Y958628D01*
X796242Y958998D01*
X795972Y959388D01*
X795732Y959788D01*
X795502Y960198D01*
X795302Y960628D01*
X795122Y961058D01*
X794962Y961508D01*
X794832Y961958D01*
X794722Y962418D01*
X794632Y962878D01*
X794572Y963348D01*
X794532Y963818D01*
X794522Y964288D01*
X794532Y964758D01*
X794572Y965228D01*
X794632Y965698D01*
X794722Y966158D01*
X794832Y966618D01*
X794962Y967068D01*
X795122Y967518D01*
X795302Y967948D01*
X795502Y968378D01*
X795732Y968788D01*
X795972Y969188D01*
X796242Y969578D01*
X796532Y969948D01*
X796832Y970308D01*
X797162Y970648D01*
X797502Y970978D01*
X797862Y971278D01*
X798232Y971568D01*
X798622Y971838D01*
X799022Y972078D01*
X799432Y972308D01*
X799862Y972508D01*
X800292Y972688D01*
X800742Y972848D01*
X801192Y972978D01*
X801652Y973088D01*
X802112Y973178D01*
X802582Y973238D01*
X803052Y973278D01*
X803522Y973288D01*
X828522D01*
Y955288D01*
D02*
G37*
D18*
X1504586Y772414D02*
D03*
X1522586Y772414D02*
D03*
D30*
X1259533Y767588D02*
D03*
X1268783D02*
D03*
D34*
X1279398Y673872D02*
D03*
Y706872D02*
D03*
X1312418Y706364D02*
D03*
Y673364D02*
D03*
D35*
X1157182Y242614D02*
D03*
X1147872D02*
D03*
X1174242D02*
D03*
X1183553D02*
D03*
X1219367Y242868D02*
D03*
X1210056D02*
D03*
D37*
X1335278Y328788D02*
D03*
Y337288D02*
D03*
D52*
X345186Y255012D02*
D03*
X357886D02*
D03*
X370586D02*
D03*
X383286D02*
D03*
X395986D02*
D03*
X408686D02*
D03*
X421386D02*
D03*
X434086D02*
D03*
Y318012D02*
D03*
X421386D02*
D03*
X408686D02*
D03*
X395986D02*
D03*
X383286D02*
D03*
X370586D02*
D03*
X357886D02*
D03*
X345186D02*
D03*
X497586Y254250D02*
D03*
X510286D02*
D03*
X522986D02*
D03*
X535686D02*
D03*
X548386D02*
D03*
X561086D02*
D03*
X573786D02*
D03*
X586486D02*
D03*
Y317250D02*
D03*
X573786D02*
D03*
X561086D02*
D03*
X548386D02*
D03*
X535686D02*
D03*
X522986D02*
D03*
X510286D02*
D03*
X497586D02*
D03*
D53*
X395190Y490982D02*
D03*
X359190D02*
D03*
X329218Y878840D02*
D03*
X365218D02*
D03*
X553178Y545592D02*
D03*
X517178D02*
D03*
D58*
X183288Y431800D02*
D03*
X272288D02*
D03*
D59*
X113560Y790956D02*
D03*
X84560D02*
D03*
D62*
X328676Y604248D02*
D03*
Y633748D02*
D03*
X523748Y632732D02*
D03*
Y603232D02*
D03*
X276860Y847870D02*
D03*
Y818370D02*
D03*
D64*
X413030Y714502D02*
D03*
Y689102D02*
D03*
X321030D02*
D03*
Y714502D02*
D03*
D72*
X1540532Y176276D02*
D03*
X1589532D02*
D03*
X1473824Y764540D02*
D03*
X1424824D02*
D03*
D73*
X1438402Y673680D02*
D03*
Y682680D02*
D03*
D75*
X1482246Y682650D02*
D03*
X1460246Y673150D02*
D03*
Y692150D02*
D03*
X1456866Y822046D02*
D03*
Y803046D02*
D03*
X1478866Y812546D02*
D03*
D76*
X1539748Y815594D02*
D03*
Y805551D02*
D03*
D77*
X1316228Y337612D02*
D03*
Y327360D02*
D03*
D80*
X1515872Y322029D02*
D03*
Y313986D02*
D03*
D84*
X575183Y925382D02*
D03*
X567183D02*
D03*
D85*
X1487678Y860690D02*
D03*
Y909690D02*
D03*
D93*
X288054Y786384D02*
D03*
X258554D02*
D03*
X393464Y459232D02*
D03*
X363964D02*
D03*
X397220Y837438D02*
D03*
X426720D02*
D03*
X390162Y569976D02*
D03*
X360662D02*
D03*
D94*
X221742Y256730D02*
D03*
Y248730D02*
D03*
D95*
X1370838Y687999D02*
D03*
Y678688D02*
D03*
D96*
X1515013Y345274D02*
D03*
Y336274D02*
D03*
X1463548Y325745D02*
D03*
Y334744D02*
D03*
X1476248Y323740D02*
D03*
Y332740D02*
D03*
X1381252Y208860D02*
D03*
Y217860D02*
D03*
X1395476Y209114D02*
D03*
Y218114D02*
D03*
X1410208Y209296D02*
D03*
Y218296D02*
D03*
D97*
X1590040Y688340D02*
D03*
Y669590D02*
D03*
D98*
X1563440Y691965D02*
D03*
Y665965D02*
D03*
Y685465D02*
D03*
Y672465D02*
D03*
Y678965D02*
D03*
D99*
X1567040Y703965D02*
D03*
Y653965D02*
D03*
D100*
X704622Y965988D02*
D03*
X724622D02*
D03*
X714622Y932988D02*
D03*
X689622Y882988D02*
D03*
Y857988D02*
D03*
Y832988D02*
D03*
D101*
X687372Y962988D02*
D03*
X741872D02*
D03*
D102*
X690372Y932688D02*
D03*
X738872D02*
D03*
D103*
X745863Y665988D02*
D03*
X771263D02*
D03*
D104*
X720463D02*
D03*
D105*
X1559560Y815131D02*
D03*
Y806131D02*
D03*
X1562056Y588192D02*
D03*
Y579192D02*
D03*
X1561548Y601472D02*
D03*
Y610472D02*
D03*
D106*
X1294953Y768096D02*
D03*
X1321453D02*
D03*
D107*
X1120576Y436880D02*
D03*
X1111576D02*
D03*
X1225986Y686308D02*
D03*
X1216986D02*
D03*
X1104464Y594614D02*
D03*
X1113464D02*
D03*
X1113718Y562102D02*
D03*
X1104718D02*
D03*
D108*
X1356614Y336922D02*
D03*
Y327122D02*
D03*
D109*
X1255014Y686288D02*
D03*
Y678688D02*
D03*
X1265936Y335050D02*
D03*
Y327450D02*
D03*
X1417320Y327416D02*
D03*
Y335016D02*
D03*
X1285030Y206646D02*
D03*
Y214246D02*
D03*
X1298448Y328178D02*
D03*
Y335778D02*
D03*
X1237996Y678698D02*
D03*
Y686298D02*
D03*
X1595106Y807516D02*
D03*
Y815116D02*
D03*
D110*
X1544828Y774104D02*
D03*
Y763104D02*
D03*
D111*
X1158454Y424570D02*
D03*
X1204254D02*
D03*
X1159470Y563000D02*
D03*
X1205270D02*
D03*
D112*
X1181354Y496570D02*
D03*
X1182370Y635000D02*
D03*
D113*
X1112334Y629056D02*
D03*
Y648056D02*
D03*
X1133534Y638556D02*
D03*
X1108524Y517246D02*
D03*
X1129724Y507746D02*
D03*
X1108524Y498246D02*
D03*
D114*
X1359836Y770128D02*
D03*
X1349836D02*
D03*
X238666Y270256D02*
D03*
X248666D02*
D03*
X1121076Y453390D02*
D03*
X1111076D02*
D03*
X1121838Y469646D02*
D03*
X1111838D02*
D03*
X1113028Y579628D02*
D03*
X1103028D02*
D03*
X1114726Y544068D02*
D03*
X1104726D02*
D03*
X65104Y264668D02*
D03*
X75104D02*
D03*
X73834Y242824D02*
D03*
X63834D02*
D03*
D115*
X1338301Y747014D02*
D03*
X1330301D02*
D03*
D116*
X878974Y533654D02*
D03*
X863974D02*
D03*
X903492Y253492D02*
D03*
X888492D02*
D03*
X878974Y558546D02*
D03*
X863974D02*
D03*
X877958Y581914D02*
D03*
X862958D02*
D03*
X878466Y604520D02*
D03*
X863466D02*
D03*
X878974Y631190D02*
D03*
X863974D02*
D03*
X877704Y655066D02*
D03*
X862704D02*
D03*
X843788Y253492D02*
D03*
X858788D02*
D03*
X799084Y251968D02*
D03*
X814084D02*
D03*
X755770Y252730D02*
D03*
X770770D02*
D03*
X712844Y252222D02*
D03*
X727844D02*
D03*
X656710Y253492D02*
D03*
X671710D02*
D03*
X613904Y253238D02*
D03*
X628904D02*
D03*
D117*
X1092454Y631758D02*
D03*
Y639258D02*
D03*
X1088644Y510988D02*
D03*
Y503488D02*
D03*
D118*
X483586Y482092D02*
D03*
Y494792D02*
D03*
Y507492D02*
D03*
Y520192D02*
D03*
X434086D02*
D03*
Y507492D02*
D03*
Y494792D02*
D03*
Y482092D02*
D03*
D119*
X458836Y501142D02*
D03*
D120*
X193870Y244705D02*
D03*
Y257405D02*
D03*
Y270105D02*
D03*
Y282805D02*
D03*
Y295505D02*
D03*
Y308205D02*
D03*
Y320905D02*
D03*
Y333605D02*
D03*
X100770D02*
D03*
Y320905D02*
D03*
Y308205D02*
D03*
Y295505D02*
D03*
Y282805D02*
D03*
Y270105D02*
D03*
Y257405D02*
D03*
Y244705D02*
D03*
D121*
X1272628Y574792D02*
D03*
Y564792D02*
D03*
Y554792D02*
D03*
Y544792D02*
D03*
Y534792D02*
D03*
Y524792D02*
D03*
Y514792D02*
D03*
Y504792D02*
D03*
Y494792D02*
D03*
Y484792D02*
D03*
Y474792D02*
D03*
Y464792D02*
D03*
Y454792D02*
D03*
Y444792D02*
D03*
Y434792D02*
D03*
Y424792D02*
D03*
Y414792D02*
D03*
X1512628D02*
D03*
Y424792D02*
D03*
Y434792D02*
D03*
Y444792D02*
D03*
Y454792D02*
D03*
Y464792D02*
D03*
Y474792D02*
D03*
Y484792D02*
D03*
Y494792D02*
D03*
Y504792D02*
D03*
Y514792D02*
D03*
Y524792D02*
D03*
Y534792D02*
D03*
Y544792D02*
D03*
Y554792D02*
D03*
Y564792D02*
D03*
Y574792D02*
D03*
D122*
X1312628Y374792D02*
D03*
X1322628D02*
D03*
X1332628D02*
D03*
X1342628D02*
D03*
X1352628D02*
D03*
X1362628D02*
D03*
X1372628D02*
D03*
X1382628D02*
D03*
X1392628D02*
D03*
X1402628D02*
D03*
X1412628D02*
D03*
X1422628D02*
D03*
X1432628D02*
D03*
X1442628D02*
D03*
X1452628D02*
D03*
X1462628D02*
D03*
X1472628D02*
D03*
Y614792D02*
D03*
X1462628D02*
D03*
X1452628D02*
D03*
X1442628D02*
D03*
X1432628D02*
D03*
X1422628D02*
D03*
X1412628D02*
D03*
X1402628D02*
D03*
X1392628D02*
D03*
X1382628D02*
D03*
X1372628D02*
D03*
X1362628D02*
D03*
X1352628D02*
D03*
X1342628D02*
D03*
X1332628D02*
D03*
X1322628D02*
D03*
X1312628D02*
D03*
X1282628Y374792D02*
D03*
X1292628D02*
D03*
X1302628D02*
D03*
X1482628D02*
D03*
X1492628D02*
D03*
X1502628D02*
D03*
Y614792D02*
D03*
X1492628D02*
D03*
X1482628D02*
D03*
X1302628D02*
D03*
X1292628D02*
D03*
X1282628D02*
D03*
D123*
X1316628Y570792D02*
D03*
Y532792D02*
D03*
Y494792D02*
D03*
Y456792D02*
D03*
Y418792D02*
D03*
X1354628D02*
D03*
X1392628D02*
D03*
X1430628D02*
D03*
X1468628D02*
D03*
Y456792D02*
D03*
Y494792D02*
D03*
Y532792D02*
D03*
Y570792D02*
D03*
X1430628D02*
D03*
X1392628D02*
D03*
X1354628D02*
D03*
Y494792D02*
D03*
X1392628Y456792D02*
D03*
X1430628Y494792D02*
D03*
X1392628Y532792D02*
D03*
D124*
X1294628Y529792D02*
D03*
Y515792D02*
D03*
Y501792D02*
D03*
Y487792D02*
D03*
Y473792D02*
D03*
Y459792D02*
D03*
X1490628D02*
D03*
Y473792D02*
D03*
Y487792D02*
D03*
Y501792D02*
D03*
Y515792D02*
D03*
Y529792D02*
D03*
D125*
X1357628Y396792D02*
D03*
X1371628D02*
D03*
X1385628D02*
D03*
X1399628D02*
D03*
X1413628D02*
D03*
X1427628D02*
D03*
Y592792D02*
D03*
X1413628D02*
D03*
X1399628D02*
D03*
X1385628D02*
D03*
X1371628D02*
D03*
X1357628D02*
D03*
D126*
X1346450Y816864D02*
D03*
X1363470D02*
D03*
X1380490D02*
D03*
X1397510D02*
D03*
X1414530D02*
D03*
D127*
X1380490Y921384D02*
D03*
D128*
X398304Y810768D02*
D03*
X427704D02*
D03*
D129*
X1028750Y478282D02*
D03*
Y465582D02*
D03*
Y452882D02*
D03*
X939750Y465582D02*
D03*
Y478282D02*
D03*
Y452882D02*
D03*
X1028750Y848106D02*
D03*
Y835406D02*
D03*
Y822706D02*
D03*
X939750Y835406D02*
D03*
Y848106D02*
D03*
Y822706D02*
D03*
Y532638D02*
D03*
Y558038D02*
D03*
Y545338D02*
D03*
X1028750Y532638D02*
D03*
Y545338D02*
D03*
Y558038D02*
D03*
Y631190D02*
D03*
Y618490D02*
D03*
Y605790D02*
D03*
X939750Y618490D02*
D03*
Y631190D02*
D03*
Y605790D02*
D03*
Y682752D02*
D03*
Y708152D02*
D03*
Y695452D02*
D03*
X1028750Y682752D02*
D03*
Y695452D02*
D03*
Y708152D02*
D03*
X939750Y759460D02*
D03*
Y784860D02*
D03*
Y772160D02*
D03*
X1028750Y759460D02*
D03*
Y772160D02*
D03*
Y784860D02*
D03*
D130*
X161158Y851408D02*
D03*
X121158D02*
D03*
D131*
X568760Y711302D02*
D03*
Y701802D02*
D03*
Y692302D02*
D03*
X543760D02*
D03*
Y701802D02*
D03*
Y711302D02*
D03*
D132*
X547642Y789940D02*
D03*
X454642D02*
D03*
D133*
X368818Y752602D02*
D03*
X338318D02*
D03*
X694172Y358140D02*
D03*
X724672D02*
D03*
X651774Y356362D02*
D03*
X621274D02*
D03*
X557012D02*
D03*
X587512D02*
D03*
X234452Y789686D02*
D03*
X203952D02*
D03*
X56378Y467360D02*
D03*
X86878D02*
D03*
X146294Y790194D02*
D03*
X176794D02*
D03*
X286268Y877570D02*
D03*
X255768D02*
D03*
X361432Y542036D02*
D03*
X391932D02*
D03*
X468884Y565404D02*
D03*
X438384D02*
D03*
X549412Y481838D02*
D03*
X518912D02*
D03*
X518658Y515366D02*
D03*
X549158D02*
D03*
D134*
X444222Y697738D02*
D03*
X513923D02*
D03*
D135*
X885190Y300366D02*
D03*
Y285866D02*
D03*
X904748Y300620D02*
D03*
Y286120D02*
D03*
X628650Y300366D02*
D03*
Y285866D02*
D03*
X672592Y300620D02*
D03*
Y286120D02*
D03*
X721868Y286374D02*
D03*
Y300874D02*
D03*
X774192Y301012D02*
D03*
Y286512D02*
D03*
X816102Y300620D02*
D03*
Y286120D02*
D03*
X856996Y300620D02*
D03*
Y286120D02*
D03*
X611124Y300112D02*
D03*
Y285612D02*
D03*
X653542Y300758D02*
D03*
Y286258D02*
D03*
X703580Y300620D02*
D03*
Y286120D02*
D03*
X753364Y300620D02*
D03*
Y286120D02*
D03*
X798576Y300620D02*
D03*
Y286120D02*
D03*
X839724Y300874D02*
D03*
Y286374D02*
D03*
D136*
X1309160Y215240D02*
D03*
Y205740D02*
D03*
X1407922Y683692D02*
D03*
Y674192D02*
D03*
X1500009Y339807D02*
D03*
Y330307D02*
D03*
X1487932Y327914D02*
D03*
Y337414D02*
D03*
X1451102Y323164D02*
D03*
Y332664D02*
D03*
X1358436Y217736D02*
D03*
Y208236D02*
D03*
X1333290Y217780D02*
D03*
Y208280D02*
D03*
X1517904Y815051D02*
D03*
Y805551D02*
D03*
D137*
X375638Y790916D02*
D03*
Y813816D02*
D03*
Y836716D02*
D03*
D138*
X308638Y813816D02*
D03*
D139*
X1530902Y322874D02*
D03*
Y313874D02*
D03*
X1560406Y323708D02*
D03*
Y314708D02*
D03*
X1547960Y323636D02*
D03*
Y314636D02*
D03*
X1581404Y806893D02*
D03*
Y815893D02*
D03*
X1401826Y335390D02*
D03*
Y326390D02*
D03*
X1388364Y333430D02*
D03*
Y324430D02*
D03*
X1338580Y680030D02*
D03*
Y689030D02*
D03*
D140*
X1466342Y161270D02*
D03*
Y95270D02*
D03*
X1571752Y531348D02*
D03*
Y465348D02*
D03*
D141*
X1354074Y688212D02*
D03*
Y680212D02*
D03*
X1392632Y677596D02*
D03*
Y685596D02*
D03*
X1498092Y814631D02*
D03*
Y806631D02*
D03*
D142*
X1422146Y682870D02*
D03*
Y674370D02*
D03*
X1282192Y336272D02*
D03*
Y327772D02*
D03*
D143*
X875030Y455168D02*
D03*
X1496568Y648970D02*
D03*
X1500124Y696468D02*
D03*
X1189482Y691388D02*
D03*
X574040Y901954D02*
D03*
X1239520Y805180D02*
D03*
X398018Y948690D02*
D03*
X1126744Y355854D02*
D03*
X71628Y929640D02*
D03*
X168910Y894842D02*
D03*
X63246Y823468D02*
D03*
D144*
X461332Y896620D02*
D03*
Y883920D02*
D03*
Y871220D02*
D03*
Y858520D02*
D03*
X533332D02*
D03*
Y871220D02*
D03*
Y883920D02*
D03*
Y896620D02*
D03*
D145*
X89738Y416560D02*
D03*
X35738D02*
D03*
X1524838Y955040D02*
D03*
X1470838D02*
D03*
D146*
X1072206Y241808D02*
D03*
X1081206D02*
D03*
X1108240Y241703D02*
D03*
X1099240D02*
D03*
D147*
X1514670Y653796D02*
D03*
X1523170D02*
D03*
X1519292Y717042D02*
D03*
X1510792D02*
D03*
X1513908Y694436D02*
D03*
X1522408D02*
D03*
X1513908Y674116D02*
D03*
X1522408D02*
D03*
D148*
X1438910Y333930D02*
D03*
Y323930D02*
D03*
D149*
X1125992Y242062D02*
D03*
X1133592D02*
D03*
X1225530Y703834D02*
D03*
X1217930D02*
D03*
D150*
X955568Y389890D02*
D03*
X1021568D02*
D03*
X953790Y300228D02*
D03*
X1019790D02*
D03*
X1125240Y800862D02*
D03*
X1191240D02*
D03*
D151*
X1233606Y767588D02*
D03*
X1224606D02*
D03*
D152*
X1112968Y415036D02*
D03*
X1105468D02*
D03*
X1114164Y606806D02*
D03*
X1121664D02*
D03*
D153*
X405384Y602986D02*
D03*
Y633486D02*
D03*
X490982Y632470D02*
D03*
Y601970D02*
D03*
X441960Y601208D02*
D03*
Y631708D02*
D03*
X887222Y206258D02*
D03*
Y175758D02*
D03*
X838962Y205242D02*
D03*
Y174742D02*
D03*
X790102Y173898D02*
D03*
Y204398D02*
D03*
X511048Y419110D02*
D03*
Y388610D02*
D03*
X468884Y419110D02*
D03*
Y388610D02*
D03*
X736600Y203464D02*
D03*
Y172964D02*
D03*
X686308Y203464D02*
D03*
Y172964D02*
D03*
X637286Y201432D02*
D03*
Y170932D02*
D03*
X588518Y170678D02*
D03*
Y201178D02*
D03*
X426635Y418856D02*
D03*
Y388356D02*
D03*
X378206D02*
D03*
Y418856D02*
D03*
X575818Y605770D02*
D03*
Y636270D02*
D03*
X366014Y633730D02*
D03*
Y603230D02*
D03*
D154*
X1540918Y857150D02*
D03*
X1591918D02*
D03*
Y908150D02*
D03*
X1540918D02*
D03*
X1539802Y132588D02*
D03*
X1590802D02*
D03*
Y81588D02*
D03*
X1539802D02*
D03*
X140208Y525780D02*
D03*
X191008D02*
D03*
X267208Y728980D02*
D03*
X165608D02*
D03*
X64008D02*
D03*
D155*
X1566418Y882650D02*
D03*
X1565302Y107088D02*
D03*
D156*
X1590040Y718465D02*
D03*
Y639465D02*
D03*
D157*
X116332Y946658D02*
D03*
X869188Y851154D02*
D03*
X870204Y741426D02*
D03*
X38608Y282620D02*
D03*
Y308020D02*
D03*
X56388Y867410D02*
D03*
D158*
X141732Y946658D02*
D03*
D159*
X210312Y819109D02*
D03*
Y956859D02*
D03*
D160*
X865568Y926846D02*
D03*
X517296Y65278D02*
D03*
D161*
X915568Y926846D02*
D03*
X965568D02*
D03*
X1015568D02*
D03*
X1065568D02*
D03*
X1115568D02*
D03*
X1165568D02*
D03*
X1215568D02*
D03*
X567296Y65278D02*
D03*
X617296D02*
D03*
X667296D02*
D03*
X717296D02*
D03*
X767296D02*
D03*
X817296D02*
D03*
X867296D02*
D03*
X917296D02*
D03*
D162*
X869188Y825754D02*
D03*
X870204Y716026D02*
D03*
X38608Y257220D02*
D03*
D163*
X359928Y941070D02*
D03*
D164*
X312928D02*
D03*
X265928D02*
D03*
D165*
X452628Y944880D02*
D03*
X1295908Y938530D02*
D03*
D166*
X427228Y944880D02*
D03*
X1270508Y938530D02*
D03*
D167*
X493268Y958850D02*
D03*
D168*
X518668D02*
D03*
X493268Y933450D02*
D03*
X518668D02*
D03*
D169*
X46164Y348050D02*
D03*
D170*
Y360550D02*
D03*
D171*
X56388Y892810D02*
D03*
D172*
X64008Y525780D02*
D03*
D173*
X42158Y158750D02*
D03*
Y133350D02*
D03*
Y107950D02*
D03*
X454358Y158750D02*
D03*
Y133350D02*
D03*
Y107950D02*
D03*
Y184150D02*
D03*
D174*
X42158D02*
D03*
D175*
X1394960Y43928D02*
D03*
X1309960D02*
D03*
D176*
X1330960Y33528D02*
D03*
X1356360D02*
D03*
X1381760D02*
D03*
X1330960Y107428D02*
D03*
X1356360D02*
D03*
X1381760D02*
D03*
D177*
X1228208Y43750D02*
D03*
X1225208D02*
D03*
X1082208Y34150D02*
D03*
D178*
X37592Y966470D02*
D03*
X37590Y32510D02*
D03*
X1583180Y32512D02*
D03*
X1583182Y966470D02*
D03*
D179*
X1564132Y722884D02*
D03*
X655574Y575122D02*
D03*
X1521460Y597408D02*
D03*
X1535938Y722630D02*
D03*
X1373378Y310896D02*
D03*
X1361440Y353822D02*
D03*
X1455420Y735584D02*
D03*
X1467358Y513080D02*
D03*
X1412748Y730250D02*
D03*
X1435100Y807974D02*
D03*
X1416937Y658635D02*
D03*
X1395984Y851662D02*
D03*
X1374140Y770128D02*
D03*
X1391412Y870204D02*
D03*
X1575606Y307524D02*
D03*
X142748Y906780D02*
D03*
X1027684Y806196D02*
D03*
X984758Y848106D02*
D03*
X839216Y862838D02*
D03*
X690372Y911606D02*
D03*
X658114Y911098D02*
D03*
X747014Y894842D02*
D03*
X671576Y946404D02*
D03*
X735076Y819150D02*
D03*
X662178Y786638D02*
D03*
X270510Y760222D02*
D03*
X316992Y849884D02*
D03*
X235966Y886714D02*
D03*
X470408Y748030D02*
D03*
X414528Y771398D02*
D03*
X579120Y789940D02*
D03*
X551688Y913384D02*
D03*
X510286Y888238D02*
D03*
X533400Y921258D02*
D03*
X590296Y914654D02*
D03*
X1345692Y552450D02*
D03*
X1226058Y471170D02*
D03*
X1234948Y440436D02*
D03*
X1235710Y340614D02*
D03*
X1276350Y299720D02*
D03*
X1303528Y351790D02*
D03*
X1323848Y353060D02*
D03*
X1024636Y500634D02*
D03*
X648208Y656336D02*
D03*
X694182Y754634D02*
D03*
X712724Y577596D02*
D03*
X854148Y762709D02*
D03*
X773366Y574992D02*
D03*
X1203198Y734060D02*
D03*
X1203960Y710184D02*
D03*
X1334008Y659130D02*
D03*
Y712470D02*
D03*
X1132078Y423418D02*
D03*
X1073912Y506984D02*
D03*
X1102360Y478790D02*
D03*
X1103884Y530352D02*
D03*
X1121664Y395732D02*
D03*
X1025398Y648970D02*
D03*
X1028750Y733502D02*
D03*
X1050544Y757174D02*
D03*
X1111758Y673100D02*
D03*
X669036Y427990D02*
D03*
X718312Y412496D02*
D03*
X770636Y402844D02*
D03*
X112522Y359410D02*
D03*
X374904Y351028D02*
D03*
X162306Y297434D02*
D03*
X478282Y711200D02*
D03*
X390398Y685800D02*
D03*
X537210Y732028D02*
D03*
X262636Y660146D02*
D03*
X538347Y668407D02*
D03*
X81280Y225806D02*
D03*
X63246Y283718D02*
D03*
X448564Y531114D02*
D03*
X326390Y451104D02*
D03*
X1143498Y222030D02*
D03*
X568452Y385826D02*
D03*
X578866Y461010D02*
D03*
X601726Y414528D02*
D03*
X629920Y393192D02*
D03*
X639826Y411988D02*
D03*
X642366Y447040D02*
D03*
X466852Y325374D02*
D03*
X404114Y580390D02*
D03*
X584454Y517398D02*
D03*
X653288Y385826D02*
D03*
X410464Y300228D02*
D03*
X1240028Y850900D02*
D03*
X1506220Y835914D02*
D03*
X1461262Y305816D02*
D03*
X1538986Y826770D02*
D03*
D180*
X1496568D02*
D03*
X1524508Y640080D02*
D03*
X1532128Y681990D02*
D03*
X1535938Y655320D02*
D03*
X1393952Y186944D02*
D03*
X1391412Y347218D02*
D03*
X1415855Y359469D02*
D03*
X1426718Y350520D02*
D03*
X1451102Y343426D02*
D03*
X1452118Y394970D02*
D03*
X1374648Y252476D02*
D03*
X1366520Y182372D02*
D03*
X1356868Y660146D02*
D03*
X1501648Y355600D02*
D03*
X162306Y824484D02*
D03*
X153137Y772414D02*
D03*
X398272Y856742D02*
D03*
X429006Y733298D02*
D03*
X1246378Y298450D02*
D03*
Y524510D02*
D03*
X1339088Y393700D02*
D03*
X868934Y270510D02*
D03*
X975614Y506476D02*
D03*
X558292Y620776D02*
D03*
X565912Y571500D02*
D03*
X569976Y586486D02*
D03*
X576834Y566674D02*
D03*
X588518Y562452D02*
D03*
X678942Y631190D02*
D03*
X1345438Y658368D02*
D03*
X1239266Y755650D02*
D03*
X1246378Y586740D02*
D03*
X1343152Y641350D02*
D03*
X997115Y600065D02*
D03*
X1023112Y576326D02*
D03*
X1034848Y588167D02*
D03*
X1102360Y616204D02*
D03*
X996442Y576072D02*
D03*
X977646Y575056D02*
D03*
X702310Y449326D02*
D03*
X726948Y443230D02*
D03*
X492760Y654558D02*
D03*
X429006Y655574D02*
D03*
X206502Y661416D02*
D03*
X222152Y269878D02*
D03*
X376174Y519684D02*
D03*
X412242Y510794D02*
D03*
X413004Y495300D02*
D03*
X824230Y268478D02*
D03*
X689102Y270764D02*
D03*
X735076Y271272D02*
D03*
X779272Y268478D02*
D03*
X612648Y182626D02*
D03*
X517144Y158750D02*
D03*
X1208024Y223564D02*
D03*
X1158494Y217214D02*
D03*
X1176099Y218734D02*
D03*
X1249426Y229660D02*
D03*
X1256538Y243840D02*
D03*
Y163068D02*
D03*
X1328928Y240030D02*
D03*
X1337818Y232410D02*
D03*
X662686Y184658D02*
D03*
X711454Y184404D02*
D03*
X760476Y185928D02*
D03*
X814232Y190418D02*
D03*
X862838Y191252D02*
D03*
X456184Y466090D02*
D03*
X536956Y435102D02*
D03*
X548640Y427482D02*
D03*
X558038Y417830D02*
D03*
X566166Y405892D02*
D03*
X639318Y270764D02*
D03*
X523748Y359156D02*
D03*
X507746Y586486D02*
D03*
X417322Y565150D02*
D03*
X491490Y571754D02*
D03*
X535178Y564642D02*
D03*
X499618Y534162D02*
D03*
X589218Y540131D02*
D03*
X1517904Y175514D02*
D03*
D181*
X1055116Y460248D02*
D03*
X807974Y447294D02*
D03*
D182*
X1571212Y89437D02*
D03*
X1580750Y96718D02*
D03*
X1583871Y108305D02*
D03*
X1574746Y142502D02*
D03*
X1574511Y154500D02*
D03*
X1508460Y286789D02*
D03*
Y262789D02*
D03*
Y250789D02*
D03*
Y238789D02*
D03*
Y226789D02*
D03*
Y214789D02*
D03*
Y202789D02*
D03*
Y190789D02*
D03*
X1507302Y178845D02*
D03*
X1510388Y167249D02*
D03*
X1521837Y163654D02*
D03*
X1531761Y156907D02*
D03*
X1543761D02*
D03*
X1555556Y154699D02*
D03*
X1555858Y142703D02*
D03*
X1546758Y108498D02*
D03*
X1549735Y96873D02*
D03*
X1559212Y89512D02*
D03*
X1571411Y166093D02*
D03*
X1564484Y175892D02*
D03*
X1559401Y186762D02*
D03*
X1551333Y195645D02*
D03*
X1539333Y195645D02*
D03*
X1527348Y196238D02*
D03*
Y208238D02*
D03*
Y220238D02*
D03*
Y232238D02*
D03*
Y244238D02*
D03*
Y256238D02*
D03*
Y268238D02*
D03*
X1546700Y888619D02*
D03*
X1546448Y877622D02*
D03*
X1555226Y835580D02*
D03*
X1555968Y824605D02*
D03*
X1595106Y798144D02*
D03*
X1600962Y829056D02*
D03*
X1585817Y828230D02*
D03*
X1577610Y846553D02*
D03*
X1586380Y877594D02*
D03*
X1586143Y888592D02*
D03*
X1570475Y902880D02*
D03*
X1368283Y326298D02*
D03*
M02*
