G04*
G04 #@! TF.GenerationSoftware,Altium Limited,Altium Designer,24.9.1 (31)*
G04*
G04 Layer_Color=128*
%FSLAX44Y44*%
%MOMM*%
G71*
G04*
G04 #@! TF.SameCoordinates,58564934-83CB-4443-A129-65336E2EC8F8*
G04*
G04*
G04 #@! TF.FilePolarity,Positive*
G04*
G01*
G75*
%ADD221R,0.8000X1.1400*%
%ADD222R,0.7000X2.1000*%
%ADD223R,0.5500X1.3000*%
%ADD224R,0.4500X3.8000*%
%ADD225R,0.4000X2.1000*%
%ADD226R,1.3000X0.4000*%
%ADD227R,2.2000X0.4000*%
%ADD228R,0.9000X0.9500*%
%ADD229R,0.8000X0.9500*%
%ADD230R,0.4500X2.1000*%
%ADD231R,0.4500X4.1000*%
%ADD232R,0.7000X1.0000*%
D221*
X1393260Y166228D02*
D03*
X1380560D02*
D03*
X1367860D02*
D03*
X1355160D02*
D03*
X1342460D02*
D03*
X1329760D02*
D03*
X1320260D02*
D03*
D222*
X1409960Y151428D02*
D03*
X1279960D02*
D03*
Y31428D02*
D03*
X1409960D02*
D03*
D223*
X1221708Y28750D02*
D03*
D224*
X1239908Y54650D02*
D03*
X1071408Y168350D02*
D03*
D225*
X1239608Y153250D02*
D03*
D226*
X1224358Y186750D02*
D03*
D227*
X1188658D02*
D03*
X1151658D02*
D03*
D228*
X1116758Y184000D02*
D03*
D229*
X1103358D02*
D03*
D230*
X1239908Y100250D02*
D03*
X1071408Y100600D02*
D03*
D231*
Y42750D02*
D03*
D232*
X1192608Y95250D02*
D03*
X1181608D02*
D03*
X1170608D02*
D03*
X1159608D02*
D03*
X1148608D02*
D03*
X1137608D02*
D03*
M02*
