G04*
G04 #@! TF.GenerationSoftware,Altium Limited,Altium Designer,24.9.1 (31)*
G04*
G04 Layer_Color=0*
%FSLAX44Y44*%
%MOMM*%
G71*
G04*
G04 #@! TF.SameCoordinates,58564934-83CB-4443-A129-65336E2EC8F8*
G04*
G04*
G04 #@! TF.FilePolarity,Positive*
G04*
G01*
G75*
%ADD245C,0.0254*%
G36*
X1604540Y693215D02*
X1599540Y698215D01*
X1588540D01*
X1588300Y698225D01*
X1588070Y698235D01*
X1587840Y698275D01*
X1587600Y698315D01*
X1587380Y698365D01*
X1587150Y698435D01*
X1586930Y698515D01*
X1586710Y698605D01*
X1586500Y698705D01*
X1586290Y698815D01*
X1585890Y699075D01*
X1585710Y699215D01*
X1585530Y699375D01*
X1585360Y699535D01*
X1585200Y699705D01*
X1585040Y699885D01*
X1584900Y700065D01*
X1584640Y700465D01*
X1584530Y700675D01*
X1584430Y700885D01*
X1584340Y701105D01*
X1584260Y701325D01*
X1584190Y701555D01*
X1584140Y701775D01*
X1584100Y702015D01*
X1584060Y702245D01*
X1584050Y702475D01*
X1584040Y702715D01*
Y703155D01*
X1584060Y703395D01*
X1584100Y703625D01*
X1584140Y703865D01*
X1584200Y704095D01*
X1584280Y704325D01*
X1584360Y704545D01*
X1584460Y704765D01*
X1584560Y704975D01*
X1584820Y705375D01*
X1584960Y705575D01*
X1585110Y705755D01*
X1585270Y705925D01*
X1585450Y706095D01*
X1585630Y706245D01*
X1585810Y706395D01*
X1586010Y706525D01*
X1586220Y706655D01*
X1586430Y706765D01*
X1586640Y706865D01*
X1586860Y706955D01*
X1587090Y707035D01*
X1587320Y707095D01*
X1587550Y707145D01*
X1587790Y707185D01*
X1588030Y707205D01*
X1588260Y707215D01*
X1599540D01*
X1604540Y712215D01*
Y693215D01*
D02*
G37*
G36*
Y645715D02*
X1599540Y650715D01*
X1588260D01*
X1588030Y650725D01*
X1587790Y650745D01*
X1587550Y650785D01*
X1587320Y650835D01*
X1587090Y650895D01*
X1586860Y650975D01*
X1586640Y651065D01*
X1586430Y651165D01*
X1586220Y651275D01*
X1586010Y651405D01*
X1585810Y651535D01*
X1585630Y651685D01*
X1585450Y651835D01*
X1585270Y652005D01*
X1585110Y652175D01*
X1584960Y652355D01*
X1584820Y652555D01*
X1584560Y652955D01*
X1584460Y653165D01*
X1584360Y653385D01*
X1584280Y653605D01*
X1584200Y653835D01*
X1584140Y654065D01*
X1584100Y654305D01*
X1584060Y654535D01*
X1584040Y654775D01*
Y655215D01*
X1584050Y655455D01*
X1584060Y655685D01*
X1584100Y655915D01*
X1584140Y656155D01*
X1584190Y656375D01*
X1584260Y656605D01*
X1584340Y656825D01*
X1584430Y657045D01*
X1584530Y657255D01*
X1584640Y657465D01*
X1584900Y657865D01*
X1585040Y658045D01*
X1585200Y658225D01*
X1585360Y658395D01*
X1585530Y658555D01*
X1585710Y658715D01*
X1585890Y658855D01*
X1586290Y659115D01*
X1586500Y659225D01*
X1586710Y659325D01*
X1586930Y659415D01*
X1587150Y659495D01*
X1587380Y659565D01*
X1587600Y659615D01*
X1587840Y659655D01*
X1588070Y659695D01*
X1588300Y659705D01*
X1588540Y659715D01*
X1599540D01*
X1604540Y664715D01*
Y645715D01*
D02*
G37*
G36*
X784622Y467988D02*
X644622D01*
Y557988D01*
X784622D01*
Y467988D01*
D02*
G37*
D245*
X0Y0D02*
X1624838D01*
Y1003300D01*
X0D01*
Y0D01*
M02*
