M48
;Layer_Color=9474304
;FILE_FORMAT=4:4
METRIC,LZ
;TYPE=PLATED
T01F00S00C0.3048
T02F00S00C0.4000
T03F00S00C0.5000
T04F00S00C0.5080
T06F00S00C0.7112
T07F00S00C1.0000
T08F00S00C1.0200
T09F00S00C1.1000
T10F00S00C1.3000
T11F00S00C1.4000
T12F00S00C1.5000
T13F00S00C1.6000
T14F00S00C3.2004
;TYPE=NON_PLATED
T15F00S00C0.7500
T16F00S00C1.0000
T17F00S00C1.1000
T18F00S00C1.2000
%
T01
X00222152Y00269878
X00523748Y00359156
X00517144Y0015875
X00612648Y00182626
X00662686Y00184658
X00711454Y00184404
X00760476Y00185928
X00814232Y00190418
X00862838Y00191252
X00868934Y0027051
X0082423Y00268478
X00779272
X00735076Y00271272
X00689102Y00270764
X00639318
X01158494Y00217214
X01176099Y00218734
X01208024Y00223564
X01249426Y0022966
X01256538Y0024384
X01246378Y0029845
X01328928Y0024003
X01337818Y0023241
X01256538Y00163068
X01339088Y003937
X01391412Y00347218
X01415855Y00359469
X01426718Y0035052
X01451102Y00343426
X01452118Y0039497
X01501648Y003556
X01517904Y00175514
X01393952Y00186944
X0136652Y00182372
X01374648Y00252476
X01356868Y00660146
X01535938Y0065532
X01524508Y0064008
X01532128Y0068199
X01345438Y00658368
X01343152Y0064135
X01246378Y0058674
Y0052451
X0110236Y00616204
X01034848Y00588167
X01023112Y00576326
X00996442Y00576072
X00977646Y00575056
X00997115Y00600065
X00975614Y00506476
X01239266Y0075565
X00678942Y0063119
X00558292Y00620776
X00569976Y00586486
X00565912Y005715
X00576834Y00566674
X00588518Y00562452
X00589218Y00540131
X00558038Y0041783
X00566166Y00405892
X0070231Y00449326
X00726948Y0044323
X0054864Y00427482
X00536956Y00435102
X00456184Y0046609
X00413004Y004953
X00412242Y00510794
X00376174Y00519684
X00417322Y0056515
X0049149Y00571754
X00507746Y00586486
X00535178Y00564642
X00499618Y00534162
X0049276Y00654558
X00429006Y00655574
Y00733298
X00206502Y00661416
X00153137Y00772414
X00162306Y00824484
X00398272Y00856742
X01496568Y0082677
T02
X01549735Y00096873
X01546758Y00108498
X01559212Y00089512
X01571212Y00089437
X0158075Y00096718
X01583871Y00108305
X01574746Y00142502
X01574511Y001545
X01571411Y00166093
X01564484Y00175892
X01559401Y00186762
X01551333Y00195645
X01539333Y00195645
X01527348Y00196238
Y00208238
Y00220238
Y00232238
Y00244238
Y00256238
Y00268238
X0150846Y00262789
Y00250789
Y00238789
Y00226789
Y00214789
Y00202789
Y00190789
X01507302Y00178845
X01510388Y00167249
X01521837Y00163654
X01531761Y00156907
X01543761
X01555556Y00154699
X01555858Y00142703
X0150846Y00286789
X01368283Y00326298
X01555968Y00824605
X01555226Y0083558
X0157761Y00846553
X01585817Y0082823
X01600962Y00829056
X01595106Y00798144
X0158638Y00877594
X01586143Y00888592
X01570475Y0090288
X015467Y00888619
X01546448Y00877622
T03
X00046164Y0034805
Y0036055
T04
X0008128Y00225806
X00063246Y00283718
X00112522Y0035941
X00162306Y00297434
X00410464Y00300228
X00466852Y00325374
X00374904Y00351028
X00568452Y00385826
X0062992Y00393192
X00653288Y00385826
X01121664Y00395732
X0123571Y00340614
X01303528Y0035179
X01323848Y0035306
X0127635Y0029972
X01143498Y0022203
X01373378Y00310896
X0136144Y00353822
X01461262Y00305816
X01575606Y00307524
X01467358Y0051308
X0152146Y00597408
X01535938Y0072263
X01564132Y00722884
X0145542Y00735584
X01412748Y0073025
X01416937Y00658635
X0137414Y00770128
X01334008Y0071247
Y0065913
X01345692Y0055245
X01226058Y0047117
X01234948Y00440436
X01132078Y00423418
X0110236Y0047879
X01103884Y00530352
X01073912Y00506984
X01024636Y00500634
X01025398Y0064897
X0102875Y00733502
X01050544Y00757174
X01111758Y006731
X0120396Y00710184
X01203198Y0073406
X00854148Y00762709
X00694182Y00754634
X00662178Y00786638
X0057912Y0078994
X00648208Y00656336
X00655574Y00575122
X00712724Y00577596
X00773366Y00574992
X00770636Y00402844
X00718312Y00412496
X00669036Y0042799
X00639826Y00411988
X00642366Y0044704
X00601726Y00414528
X00578866Y0046101
X00584454Y00517398
X00448564Y00531114
X00404114Y0058039
X00390398Y006858
X00414528Y00771398
X00470408Y0074803
X00478282Y007112
X0053721Y00732028
X00538347Y00668407
X00262636Y00660146
X0027051Y00760222
X0032639Y00451104
X00142748Y0090678
X00235966Y00886714
X00316992Y00849884
X00510286Y00888238
X005334Y00921258
X00551688Y00913384
X00590296Y00914654
X00658114Y00911098
X00690372Y00911606
X00671576Y00946404
X00747014Y00894842
X00735076Y0081915
X00839216Y00862838
X00984758Y00848106
X01027684Y00806196
X01240028Y008509
X01395984Y00851662
X01391412Y00870204
X014351Y00807974
X0150622Y00835914
X01538986Y0082677
T06
X01055116Y00460248
X00807974Y00447294
T07
X00427228Y0094488
X00452628
X01270508Y0093853
X01295908
T08
X00042158Y0010795
Y0013335
Y0015875
Y0018415
X00454358
Y0015875
Y0013335
Y0010795
X00493268Y0093345
Y0095885
X00518668
Y0093345
T09
X00038608Y0025722
Y0028262
Y0030802
X00870204Y00716026
Y00741426
X00141732Y00946658
X00116332
X00056388Y0089281
Y0086741
X00869188Y00851154
Y00825754
T10
X00210312Y00819109
Y00956859
T11
X01565302Y00107088
X01566418Y0088265
T12
X00517296Y00065278
X00567296
X00617296
X00667296
X00717296
X00767296
X00817296
X00867296
X00917296
X01539802Y00081588
Y00132588
X01590802
Y00081588
X00191008Y0052578
X00165608Y0072898
X00267208
X00064008
Y0052578
X00140208
X00865568Y00926846
X00915568
X00965568
X01015568
X01065568
X01115568
X01165568
X01215568
X01540918Y0090815
Y0085715
X01591918
Y0090815
T13
X00265928Y0094107
X00312928
X00359928
T14
X0003759Y0003251
X0158318Y00032512
X00037592Y0096647
X01583182
T15
X0130996Y00043928
X0139496
T16
X01082208Y0003415
X01225208Y0004375
X01228208
T17
X00030988Y0086741
Y0089281
X00116332Y00972058
X00141732
T18
X0133096Y00033528
Y00107428
X0135636
X0138176
Y00033528
X0135636
M30
